<svg xmlns="http://www.w3.org/2000/svg" xmlns:xlink="http://www.w3.org/1999/xlink" viewBox="0 0 1241.79 878.04"><defs><style>.cls-1{fill:none;}.cls-2{fill:#fff;}.cls-3{clip-path:url(#clip-path);}.cls-4{fill:#36ffb6;}.cls-5{fill:#fffcc5;}.cls-6{fill:#5082ff;}.cls-7{fill:#57bfff;}.cls-8{fill:#ff7196;}.cls-9{fill:#ff8;}.cls-10{fill:#1e1e1e;}.cls-11{fill:#0b51ff;}.cls-12{fill:#12deff;}.cls-13{fill:url(#New_Pattern);}.cls-14{fill:#2b2b2b;}.cls-15{fill:#ffd4e6;}</style><clipPath id="clip-path"><rect class="cls-1" x="210.68" y="114.94" width="1001.72" height="248.59"/></clipPath><pattern id="New_Pattern" data-name="New Pattern" width="102.59" height="99.57" patternTransform="translate(-81.66 -130.84) scale(1.22)" patternUnits="userSpaceOnUse" viewBox="0 0 102.59 99.57"><rect class="cls-1" width="102.59" height="99.57"/><path class="cls-2" d="M22.43,72.24a2.9,2.9,0,0,0,.05-1.06c-.07-.54-.21-.85-.43-.91a2.87,2.87,0,0,0-1,0c-.72.09-1.44.15-2.17.18s-1.44.07-2.16.15c-1.82.19-3.61.39-5.4.6s-3.58.44-5.39.68a.52.52,0,0,0-.26.1l-.22.17-.08.18a2.67,2.67,0,0,0,0,.79c.06.38.11.66.13.84q.39,2.94.64,5.88t.63,5.87c.2,1.51.41,3,.65,4.52s.44,3,.64,4.48a.17.17,0,0,0,0,.1.46.46,0,0,1,0,.09l.15.12a.4.4,0,0,0,.34.23,2.33,2.33,0,0,0,.53,0l1-.12,1-.12.58,0q4.35-.48,8.58-1a9.36,9.36,0,0,1,1.3-.08,9.47,9.47,0,0,0,1.3-.09,4.19,4.19,0,0,0,1.5-.47A1.2,1.2,0,0,0,25,91.93a13.65,13.65,0,0,1-.12-1.57,13.48,13.48,0,0,0-.12-1.56,2,2,0,0,0-.24-.78c-.12-.21-.37-.28-.75-.23a4.56,4.56,0,0,0-.62.13,4.54,4.54,0,0,1-.66.14c-1.42.19-2.84.36-4.27.53s-2.85.32-4.28.46c-.11-.65-.21-1.3-.32-1.94l-.33-1.94c.55-.07,1.09-.11,1.62-.13a14.71,14.71,0,0,0,1.62-.12,3,3,0,0,0,1.18-.36,1.4,1.4,0,0,0,.55-.68,2.33,2.33,0,0,0,.11-1c0-.37-.07-.8-.13-1.27,0-.21-.06-.44-.08-.7a2.71,2.71,0,0,0-.16-.72,1.5,1.5,0,0,0-.36-.54.84.84,0,0,0-.71-.14c-.56.07-1.12.17-1.71.3a9.09,9.09,0,0,1-.91.15,4.55,4.55,0,0,0-.75.13c-.2,0-.39.08-.57.11a.9.9,0,0,1-.43,0,.26.26,0,0,1-.17-.18,1.17,1.17,0,0,1,0-.34,3.44,3.44,0,0,0,0-.51c-.06-.29-.11-.58-.16-.86s-.09-.57-.13-.86a3.46,3.46,0,0,1,0-.89c0-.12.19-.2.49-.24l.64-.08a9.86,9.86,0,0,1,1.07-.09q.54,0,1.08-.06c.27,0,.55,0,.82-.07l.81-.11,1.62-.21,1.06-.07c.35,0,.69-.06,1-.1a2.46,2.46,0,0,0,1.64-.63,2.47,2.47,0,0,0,.16-1.68A2.74,2.74,0,0,1,22.43,72.24Z"/><path class="cls-2" d="M48,73l-.2-.27a6.34,6.34,0,0,0-1.14-.28l-.59-.07-.56-.07L45,72.26l-.8-.11-.8-.08a1.64,1.64,0,0,0-.55,0l-.31.19a1.7,1.7,0,0,0-.12.33c-.41,1-.85,2.06-1.32,3s-.94,2-1.39,3q-.85,1.94-1.62,3.93c-.51,1.33-1,2.65-1.55,4l-.05-.84c-.07-1.23-.14-2.45-.22-3.67s-.15-2.46-.21-3.72l-.12-1.93c0-.64-.09-1.29-.15-1.94,0-.19,0-.46-.07-.81s-.07-.7-.13-1.07a7,7,0,0,0-.24-1,1.24,1.24,0,0,0-.44-.66.44.44,0,0,0-.23-.1l-.27,0-.3,0c-.45-.07-.89-.11-1.32-.15s-.88-.08-1.33-.15a1.49,1.49,0,0,1-.4-.11,2.07,2.07,0,0,0-.36-.11l-.17,0-.14,0-.2.14a.1.1,0,0,1,0,.12.22.22,0,0,0-.05.11,4.77,4.77,0,0,0,0,.72c0,.38,0,.8.07,1.28s.07,1,.11,1.52.1,1,.15,1.52.1.91.14,1.28,0,.63,0,.77q.34,3.89.69,7.74T32,93.16c0,.33.08.64.13.92s.27.45.65.51,1,.14,1.49.18,1,.1,1.53.18l.83.12.82.16a.73.73,0,0,0,.26.08.82.82,0,0,0,.68-.14,3.52,3.52,0,0,0,.56-.93c.27-.55.57-1.21.92-2s.71-1.61,1.09-2.49.73-1.72,1-2.5l.84-2c.24-.55.37-.87.41-1L44.65,81c.74-1.8,1.49-3.58,2.27-5.36.17-.36.37-.76.59-1.2A6.59,6.59,0,0,0,48,73.21Z"/><path class="cls-2" d="M53.85,94.67a.17.17,0,0,0,0,.07.41.41,0,0,0,.21.3,1.36,1.36,0,0,0,.43.13,2.22,2.22,0,0,0,.52,0l.51,0,.34,0,1.06-.17c.35-.07.7-.13,1.06-.17l.24,0c.14,0,.28,0,.43,0a4,4,0,0,0,.46,0,.43.43,0,0,0,.4-.56c.17-1,.31-2.09.42-3.23a1.37,1.37,0,0,0,0-.31c0-.19,0-.28,0-.28h.07a6.27,6.27,0,0,1,.92-.19l.93-.12,1.16-.12c.39,0,.78-.06,1.17-.11l.39,0c0,.06.13.31.29.74s.33.88.53,1.37.39.94.56,1.34a2.61,2.61,0,0,0,.32.67.72.72,0,0,0,.37.07l.46,0,.26,0c.47-.07,1-.14,1.41-.23s1-.19,1.54-.26l.58,0a6,6,0,0,0,.61,0c.27,0,.41-.24.41-.61l-.06-.16a3.11,3.11,0,0,0-.24-.68c-.14-.31-.3-.65-.47-1L70.7,89.7a7.44,7.44,0,0,1-.36-.81Q69.18,86.12,68,83.35c-.78-1.83-1.53-3.69-2.23-5.58l-.26-.71L65,75.68c-.19-.53-.41-1.1-.63-1.71l-.63-1.67c-.19-.52-.36-1-.5-1.3a2.44,2.44,0,0,0-.24-.55.39.39,0,0,0-.4-.16L57.32,71c-.12,0-.19,0-.21.1a.94.94,0,0,1-.14.16,8.31,8.31,0,0,0-.49,2.06c-.18,1.1-.37,2.41-.56,3.94s-.39,3.18-.58,5-.39,3.48-.57,5.12-.34,3.11-.49,4.42S54,94,53.85,94.6A.08.08,0,0,1,53.85,94.67Zm7.6-13.43c.25.93.53,1.85.85,2.76l-1.9.21c.09-.76.19-1.53.31-2.29l.09-.64Z"/><path class="cls-2" d="M89.13,81.63c-.51-1.33-1-2.66-1.49-4s-1-2.68-1.44-4A2.82,2.82,0,0,1,86,73c-.07-.27-.15-.56-.24-.86a8.09,8.09,0,0,0-.27-.83,2.93,2.93,0,0,0-.22-.52.82.82,0,0,0-.33-.27,1.43,1.43,0,0,0-.41-.11c-.72-.09-1.46-.17-2.21-.24s-1.48-.14-2.21-.24H80a.33.33,0,0,1-.1,0l-.19.08-.12.15a.09.09,0,0,1,0,.07.41.41,0,0,0,0,.1c-.21,1.65-.41,3.3-.58,5s-.37,3.31-.59,4.95c-.11.86-.24,1.73-.37,2.61s-.27,1.74-.38,2.6-.21,1.72-.27,2.58-.16,1.73-.28,2.58c0,.28-.08.54-.13.8a6.5,6.5,0,0,0-.14.79.84.84,0,0,0,.15.67,1.56,1.56,0,0,0,.54.44,3.39,3.39,0,0,0,.76.25c.28.06.55.11.79.14l.48.06c.31,0,.64.08,1,.1l1,.06a2.87,2.87,0,0,0,1.17-.08.93.93,0,0,0,.54-.47,2.76,2.76,0,0,0,.22-.87c0-.35.08-.75.14-1.2.16-1.24.29-2.48.4-3.72s.19-2.24.29-3.36c.35,1,.69,2,1,3s.67,2,1,3c.19.48.4,1,.65,1.46a7.36,7.36,0,0,1,.54,1.48,1.77,1.77,0,0,0,0,.19c0,.11,0,.22,0,.35s0,.24,0,.34,0,.18,0,.23a.34.34,0,0,0,.21.38,1.6,1.6,0,0,0,.55.16,4.79,4.79,0,0,0,.49,0l.36,0c.61.08,1.21.18,1.81.29s1.19.21,1.8.29l.36,0,.32,0,.18,0,.27-.27,0-.17a3.7,3.7,0,0,0,.11-1A6.91,6.91,0,0,1,94,93q.15-1.39.3-2.73c.11-.89.23-1.8.35-2.73l1.65-12.49c0-.43.13-.85.21-1.27s.16-.82.22-1.23a.31.31,0,0,0,0-.1v-.1l-.11-.19a.73.73,0,0,0-.39-.21,7.78,7.78,0,0,0-.8-.17l-1-.17c-.38-.06-.74-.12-1.08-.16l-2-.26a2.28,2.28,0,0,0-.64,0,.39.39,0,0,0-.34.39,3.82,3.82,0,0,0,0,.68c0,.23,0,.46,0,.69,0,1-.15,1.91-.27,2.86-.1.72-.2,1.44-.32,2.17s-.24,1.46-.36,2.18Z"/><rect class="cls-1" y="66.38" width="102.59" height="33.19"/><path class="cls-2" d="M22.43,39a2.84,2.84,0,0,0,.05-1c-.07-.54-.21-.85-.43-.91a2.87,2.87,0,0,0-1,0c-.72.09-1.44.15-2.17.18s-1.44.07-2.16.15c-1.82.19-3.61.39-5.4.6s-3.58.44-5.39.68a.52.52,0,0,0-.26.1L5.42,39l-.08.18a2.67,2.67,0,0,0,0,.79c.06.38.11.66.13.84q.39,2.94.64,5.88t.63,5.87c.2,1.51.41,3,.65,4.52s.44,3,.64,4.48a.17.17,0,0,0,0,.1l0,.09.15.12a.4.4,0,0,0,.34.23,2,2,0,0,0,.53,0c.31,0,.64-.06,1-.11l1-.12.58-.06q4.35-.47,8.58-1a11.2,11.2,0,0,1,1.3-.09,8.11,8.11,0,0,0,1.3-.08,4.19,4.19,0,0,0,1.5-.47A1.2,1.2,0,0,0,25,58.74a13.65,13.65,0,0,1-.12-1.57,13.83,13.83,0,0,0-.12-1.57,2,2,0,0,0-.24-.77c-.12-.21-.37-.28-.75-.23a4.56,4.56,0,0,0-.62.13,4.54,4.54,0,0,1-.66.14c-1.42.19-2.84.36-4.27.53s-2.85.32-4.28.46c-.11-.65-.21-1.3-.32-1.94L13.26,52c.55-.07,1.09-.11,1.62-.13a14.71,14.71,0,0,0,1.62-.12,3,3,0,0,0,1.18-.36,1.4,1.4,0,0,0,.55-.68,2.33,2.33,0,0,0,.11-1c0-.37-.07-.8-.13-1.27,0-.21-.06-.44-.08-.7A2.71,2.71,0,0,0,18,47a1.5,1.5,0,0,0-.36-.54.84.84,0,0,0-.71-.14c-.56.07-1.12.17-1.71.3a9.09,9.09,0,0,1-.91.15,4.55,4.55,0,0,0-.75.13c-.2,0-.39.08-.57.11a.9.9,0,0,1-.43,0,.26.26,0,0,1-.17-.18,1.17,1.17,0,0,1,0-.34,3.44,3.44,0,0,0,0-.51c-.06-.3-.11-.58-.16-.86s-.09-.57-.13-.86a3.46,3.46,0,0,1,0-.89c0-.12.19-.2.49-.24l.64-.08A9.86,9.86,0,0,1,14.16,43q.54,0,1.08-.06c.27,0,.55,0,.82-.07l.81-.11,1.62-.21,1.06-.07c.35,0,.69-.06,1-.1a2.46,2.46,0,0,0,1.64-.63A2.47,2.47,0,0,0,22.37,40,2.81,2.81,0,0,1,22.43,39Z"/><path class="cls-2" d="M48,39.84l-.2-.27a6.34,6.34,0,0,0-1.14-.28l-.59-.07-.56-.07L45,39.07l-.8-.11-.8-.09a1.88,1.88,0,0,0-.55,0l-.31.19a1.7,1.7,0,0,0-.12.33c-.41,1-.85,2.06-1.32,3.05s-.94,2-1.39,3q-.85,1.94-1.62,3.93c-.51,1.33-1,2.65-1.55,4l-.05-.84c-.07-1.23-.14-2.45-.22-3.67s-.15-2.46-.21-3.72l-.12-1.93c0-.64-.09-1.29-.15-1.94,0-.19,0-.46-.07-.81s-.07-.7-.13-1.07a7,7,0,0,0-.24-1,1.24,1.24,0,0,0-.44-.66.44.44,0,0,0-.23-.1l-.27,0-.3-.05q-.68-.1-1.32-.15c-.44,0-.88-.08-1.33-.15a1.49,1.49,0,0,1-.4-.11,2.07,2.07,0,0,0-.36-.11l-.17,0-.14.05-.2.14a.1.1,0,0,1,0,.12.22.22,0,0,0-.05.11,4.77,4.77,0,0,0,0,.72c0,.38,0,.8.07,1.28s.07,1,.11,1.52.1,1,.15,1.52.1.91.14,1.28,0,.63,0,.77q.34,3.89.69,7.74T32,60c0,.33.08.64.13.92s.27.45.65.51,1,.14,1.49.18,1,.1,1.53.18l.83.12.82.16a.73.73,0,0,0,.26.08.82.82,0,0,0,.68-.14,3.52,3.52,0,0,0,.56-.93c.27-.55.57-1.21.92-2s.71-1.61,1.09-2.49.73-1.72,1-2.5l.84-2c.24-.55.37-.87.41-1l1.36-3.28c.74-1.8,1.49-3.58,2.27-5.36.17-.36.37-.76.59-1.2A6.59,6.59,0,0,0,48,40Z"/><path class="cls-2" d="M53.85,61.48a.15.15,0,0,0,0,.07.41.41,0,0,0,.21.3,1.36,1.36,0,0,0,.43.13A2.22,2.22,0,0,0,55,62l.51,0,.34,0,1.06-.17c.35-.07.7-.13,1.06-.18l.24,0c.14,0,.28,0,.43,0l.46,0a.43.43,0,0,0,.4-.56c.17-1,.31-2.09.42-3.23a1.37,1.37,0,0,0,0-.31c0-.19,0-.28,0-.28h.07a6.27,6.27,0,0,1,.92-.19l.93-.12,1.16-.12c.39,0,.78-.06,1.17-.11l.39-.05c0,.06.13.31.29.74s.33.88.53,1.37.39.94.56,1.34a2.61,2.61,0,0,0,.32.67.72.72,0,0,0,.37.07l.46,0,.26,0c.47-.06,1-.13,1.41-.22s1-.19,1.54-.26a5.11,5.11,0,0,1,.58,0,6,6,0,0,0,.61,0c.27,0,.41-.24.41-.61l-.06-.16a3.11,3.11,0,0,0-.24-.68c-.14-.31-.3-.65-.47-1l-.52-1.06a7.44,7.44,0,0,1-.36-.81Q69.18,52.93,68,50.16c-.78-1.83-1.53-3.7-2.23-5.58l-.26-.71L65,42.49c-.19-.53-.41-1.1-.63-1.71l-.63-1.67c-.19-.52-.36-1-.5-1.3a2.44,2.44,0,0,0-.24-.55.39.39,0,0,0-.4-.16l-5.28.68c-.12,0-.19,0-.21.1A.94.94,0,0,1,57,38a8.31,8.31,0,0,0-.49,2.06c-.18,1.1-.37,2.41-.56,3.94s-.39,3.18-.58,5-.39,3.48-.57,5.12-.34,3.11-.49,4.42-.3,2.26-.43,2.88A.08.08,0,0,1,53.85,61.48Zm7.6-13.43c.25.93.53,1.85.85,2.76L60.4,51c.09-.76.19-1.53.31-2.29l.09-.65Z"/><path class="cls-2" d="M89.13,48.44c-.51-1.33-1-2.66-1.49-4s-1-2.68-1.44-4.05a2.82,2.82,0,0,1-.18-.59c-.07-.27-.15-.56-.24-.86a8.09,8.09,0,0,0-.27-.83,3.55,3.55,0,0,0-.22-.53.88.88,0,0,0-.33-.26,1.43,1.43,0,0,0-.41-.11c-.72-.09-1.46-.17-2.21-.24s-1.48-.14-2.21-.24h-.2l-.19.08-.12.15a.09.09,0,0,1,0,.07.41.41,0,0,0,0,.1c-.21,1.65-.41,3.3-.58,5s-.37,3.31-.59,4.95c-.11.86-.24,1.73-.37,2.61s-.27,1.74-.38,2.6-.21,1.72-.27,2.58-.16,1.73-.28,2.58c0,.28-.08.54-.13.8a6.5,6.5,0,0,0-.14.79.84.84,0,0,0,.15.67,1.56,1.56,0,0,0,.54.44,3.39,3.39,0,0,0,.76.25c.28.06.55.11.79.14l.48.06c.31,0,.64.08,1,.1l1,.06a2.87,2.87,0,0,0,1.17-.08.93.93,0,0,0,.54-.47,2.76,2.76,0,0,0,.22-.87c0-.35.08-.75.14-1.2.16-1.24.29-2.48.4-3.72s.19-2.24.29-3.36c.35,1,.69,2,1,3s.67,2,1,3c.19.48.4,1,.65,1.46A7.36,7.36,0,0,1,87.5,60a1.77,1.77,0,0,0,0,.19c0,.11,0,.22,0,.35s0,.24,0,.34,0,.18,0,.23a.34.34,0,0,0,.21.38,1.6,1.6,0,0,0,.55.16,4.79,4.79,0,0,0,.49.05l.36,0c.61.08,1.21.18,1.81.29s1.19.21,1.8.29l.36,0,.32,0,.18,0,.27-.27,0-.17a3.7,3.7,0,0,0,.11-1A6.91,6.91,0,0,1,94,59.83q.15-1.39.3-2.73c.11-.89.23-1.8.35-2.73l1.65-12.49c0-.43.13-.85.21-1.27s.16-.82.22-1.23a.31.31,0,0,0,0-.1v-.1L96.65,39a.73.73,0,0,0-.39-.21,7.78,7.78,0,0,0-.8-.17l-1-.17c-.38-.07-.74-.12-1.08-.16l-2-.26a2.28,2.28,0,0,0-.64,0,.39.39,0,0,0-.34.38,4,4,0,0,0,0,.69c0,.23,0,.46,0,.69,0,.95-.15,1.91-.27,2.85-.1.73-.2,1.45-.32,2.18s-.24,1.46-.36,2.18Z"/><rect class="cls-1" y="33.19" width="102.59" height="33.19"/><path class="cls-2" d="M22.43,5.85a2.84,2.84,0,0,0,.05-1c-.07-.54-.21-.85-.43-.91a2.65,2.65,0,0,0-1,0c-.72.09-1.44.15-2.17.18s-1.44.07-2.16.15c-1.82.19-3.61.39-5.4.6s-3.58.44-5.39.68a.52.52,0,0,0-.26.1l-.22.17L5.34,6a2.67,2.67,0,0,0,0,.79c.06.38.11.66.13.84q.39,2.94.64,5.88t.63,5.87c.2,1.51.41,3,.65,4.52s.44,3,.64,4.48a.12.12,0,0,0,0,.09l0,.1.15.12a.4.4,0,0,0,.34.23,2,2,0,0,0,.53,0c.31,0,.64-.06,1-.11l1-.12.58-.06q4.35-.46,8.58-1a9.36,9.36,0,0,1,1.3-.09,9.45,9.45,0,0,0,1.3-.08,4.19,4.19,0,0,0,1.5-.47A1.2,1.2,0,0,0,25,25.55,13.65,13.65,0,0,1,24.85,24a13.83,13.83,0,0,0-.12-1.57,2,2,0,0,0-.24-.77c-.12-.21-.37-.28-.75-.23a4.56,4.56,0,0,0-.62.13,4.54,4.54,0,0,1-.66.14c-1.42.19-2.84.36-4.27.53l-4.28.46c-.11-.66-.21-1.3-.32-1.94l-.33-1.94c.55-.07,1.09-.11,1.62-.13a14.71,14.71,0,0,0,1.62-.12,2.83,2.83,0,0,0,1.18-.37,1.33,1.33,0,0,0,.55-.67,2.33,2.33,0,0,0,.11-1c0-.37-.07-.8-.13-1.27,0-.21-.06-.44-.08-.7a2.71,2.71,0,0,0-.16-.72,1.5,1.5,0,0,0-.36-.54.88.88,0,0,0-.71-.15c-.56.08-1.12.18-1.71.31a9.09,9.09,0,0,1-.91.15,4.55,4.55,0,0,0-.75.13c-.2,0-.39.08-.57.11a.9.9,0,0,1-.43,0,.26.26,0,0,1-.17-.18,1.17,1.17,0,0,1,0-.34,3.66,3.66,0,0,0,0-.52c-.06-.29-.11-.57-.16-.85s-.09-.57-.13-.86a3.46,3.46,0,0,1,0-.89c0-.12.19-.2.49-.24l.64-.08a9.86,9.86,0,0,1,1.07-.09l1.08-.06c.27,0,.55,0,.82-.07l.81-.11,1.62-.21,1.06-.07c.35,0,.69-.06,1-.1a2.46,2.46,0,0,0,1.64-.63,2.48,2.48,0,0,0,.16-1.68A2.81,2.81,0,0,1,22.43,5.85Z"/><path class="cls-2" d="M48,6.65l-.2-.27a6.34,6.34,0,0,0-1.14-.28L46.08,6,45.52,6,45,5.88l-.8-.11-.8-.09a1.88,1.88,0,0,0-.55,0l-.31.19a1.7,1.7,0,0,0-.12.33c-.41,1-.85,2.06-1.32,3.05s-.94,2-1.39,3Q38.81,14.2,38,16.19c-.51,1.33-1,2.65-1.55,4l-.05-.84c-.07-1.23-.14-2.45-.22-3.67s-.15-2.46-.21-3.72L35.89,10c0-.64-.09-1.29-.15-1.94,0-.19,0-.46-.07-.81s-.07-.7-.13-1.07a7,7,0,0,0-.24-1,1.2,1.2,0,0,0-.44-.66.44.44,0,0,0-.23-.1l-.27,0-.3,0q-.68-.11-1.32-.15c-.44,0-.88-.08-1.33-.15a1.49,1.49,0,0,1-.4-.11,2.07,2.07,0,0,0-.36-.11l-.17,0-.14.05-.2.14a.1.1,0,0,1,0,.12.19.19,0,0,0-.05.11,4.77,4.77,0,0,0,0,.72c0,.37,0,.8.07,1.28s.07,1,.11,1.52.1,1,.15,1.52.1.91.14,1.28,0,.63,0,.77q.34,3.89.69,7.74T32,26.78c0,.33.08.64.13.92s.27.45.65.51,1,.14,1.49.18,1,.1,1.53.18l.83.12.82.16a.73.73,0,0,0,.26.08.82.82,0,0,0,.68-.14,3.52,3.52,0,0,0,.56-.93c.27-.55.57-1.21.92-2s.71-1.61,1.09-2.49.73-1.72,1-2.5l.84-2c.24-.55.37-.87.41-1l1.36-3.28c.74-1.8,1.49-3.59,2.27-5.36.17-.36.37-.76.59-1.2A6.59,6.59,0,0,0,48,6.83Z"/><path class="cls-2" d="M53.85,28.29a.15.15,0,0,0,0,.07.41.41,0,0,0,.21.3,1.36,1.36,0,0,0,.43.13,2.22,2.22,0,0,0,.52,0l.51,0,.34,0,1.06-.17c.35-.07.7-.13,1.06-.18l.24,0c.14,0,.28,0,.43,0l.46,0a.43.43,0,0,0,.4-.56c.17-1,.31-2.09.42-3.23a1.37,1.37,0,0,0,0-.31c0-.19,0-.28,0-.28h.07a6.27,6.27,0,0,1,.92-.19l.93-.12,1.16-.12c.39,0,.78-.06,1.17-.11l.39,0c0,.06.13.31.29.74s.33.88.53,1.37.39.94.56,1.34a2.61,2.61,0,0,0,.32.67.72.72,0,0,0,.37.07l.46,0,.26,0c.47-.06,1-.13,1.41-.22s1-.19,1.54-.26a5.11,5.11,0,0,1,.58,0,6,6,0,0,0,.61,0c.27,0,.41-.24.41-.61l-.06-.16a3.11,3.11,0,0,0-.24-.68c-.14-.31-.3-.65-.47-1l-.52-1.06a7.44,7.44,0,0,1-.36-.81Q69.18,19.74,68,17c-.78-1.83-1.53-3.7-2.23-5.58l-.26-.71L65,9.3c-.19-.53-.41-1.1-.63-1.71l-.63-1.67c-.19-.52-.36-1-.5-1.3A2.44,2.44,0,0,0,63,4.07a.39.39,0,0,0-.4-.16l-5.28.68c-.12,0-.19,0-.21.1a.94.94,0,0,1-.14.16,8.31,8.31,0,0,0-.49,2.06c-.18,1.1-.37,2.41-.56,3.94s-.39,3.18-.58,5-.39,3.48-.57,5.12-.34,3.11-.49,4.42-.3,2.26-.43,2.88A.08.08,0,0,1,53.85,28.29Zm7.6-13.43c.25.93.53,1.85.85,2.76l-1.9.21c.09-.77.19-1.53.31-2.29l.09-.65Z"/><path class="cls-2" d="M89.13,15.25c-.51-1.33-1-2.66-1.49-4s-1-2.68-1.44-4A2.82,2.82,0,0,1,86,6.62c-.07-.27-.15-.56-.24-.86a8.09,8.09,0,0,0-.27-.83,3.55,3.55,0,0,0-.22-.53A.88.88,0,0,0,85,4.14,1.43,1.43,0,0,0,84.55,4c-.72-.09-1.46-.17-2.21-.24s-1.48-.14-2.21-.24h-.2l-.19.08-.12.15a.09.09,0,0,1,0,.07.41.41,0,0,0,0,.1c-.21,1.65-.41,3.3-.58,5s-.37,3.31-.59,4.95c-.11.86-.24,1.73-.37,2.61s-.27,1.74-.38,2.6-.21,1.72-.27,2.58-.16,1.73-.28,2.58c0,.28-.08.54-.13.8a6.5,6.5,0,0,0-.14.79.84.84,0,0,0,.15.67,1.68,1.68,0,0,0,.54.44,3.39,3.39,0,0,0,.76.25c.28.06.55.11.79.14l.48.06,1,.1,1,.05a2.73,2.73,0,0,0,1.17-.07.93.93,0,0,0,.54-.47,2.76,2.76,0,0,0,.22-.87c0-.35.08-.75.14-1.2.16-1.24.29-2.48.4-3.72s.19-2.24.29-3.36c.35,1,.69,2,1,3s.67,2,1,3c.19.48.4,1,.65,1.46a7.36,7.36,0,0,1,.54,1.48,1.77,1.77,0,0,0,0,.19c0,.11,0,.22,0,.35s0,.24,0,.34,0,.18,0,.22a.34.34,0,0,0,.21.39,1.6,1.6,0,0,0,.55.16,4.79,4.79,0,0,0,.49.05l.36,0c.61.08,1.21.18,1.81.29s1.19.21,1.8.29l.36,0,.32,0,.18,0,.27-.27,0-.17a3.7,3.7,0,0,0,.11-1A6.91,6.91,0,0,1,94,26.64q.15-1.39.3-2.73c.11-.89.23-1.8.35-2.73L96.34,8.69c0-.43.13-.85.21-1.27s.16-.82.22-1.23a.28.28,0,0,0,0-.1V6l-.11-.19a.73.73,0,0,0-.39-.21,7.78,7.78,0,0,0-.8-.17l-1-.17c-.38-.07-.74-.12-1.08-.16l-2-.26a2.28,2.28,0,0,0-.64,0,.39.39,0,0,0-.34.38,4,4,0,0,0,0,.69c0,.23,0,.46,0,.69,0,1-.15,1.91-.27,2.85-.1.73-.2,1.45-.32,2.18l-.36,2.18Z"/><rect class="cls-1" width="102.59" height="33.19"/></pattern></defs><title>form-header</title><g id="Layer_2" data-name="Layer 2"><g id="_ÎÓÈ_1" data-name="—ÎÓÈ_1"><g class="cls-3"><path class="cls-4" d="M1097.4,65.24a42,42,0,1,0,22.48,26.81A34,34,0,0,1,1097.4,65.24Z"/><path class="cls-4" d="M720.16,159,672.9,117,732,87.1l4.32,8.56-46.52,23.5,47.49,42.2L682.55,187.7l28.68,24.07h530.56V0H918a24.93,24.93,0,1,1-32.38,0H605q-8.54,19.14-17.09,38.27L552.74,5.33,581,0H429.13L667.41,184.34ZM1079.39,42a60.8,60.8,0,0,1,20.75,3.63,34,34,0,1,1,39.53,47.17A61.17,61.17,0,1,1,1079.39,42Z"/><path class="cls-5" d="M904,319c-1.73.64-3.41,1.35-5.07,2.1h59.38A70.85,70.85,0,0,0,904,319Z"/><path class="cls-5" d="M1241.79,660.39V648.27l-32.55,12.12Z"/><path class="cls-5" d="M960.82,405.94h281V385.59H961.35A43.22,43.22,0,0,1,960.82,405.94Z"/><path class="cls-5" d="M844.2,321.12h36A81.65,81.65,0,0,1,928.67,305a80.57,80.57,0,0,1,33.89,7.51l-4,8.61h283.22V300.77H817.9Z"/><path class="cls-5" d="M896.78,361.8a36.15,36.15,0,0,1,25.09-10.15,35.75,35.75,0,0,1,15,3.31,43.87,43.87,0,0,1,12.4,8.57h292.49V343.18H872.71Z"/><path class="cls-5" d="M1008.64,448.35h233.15V428H982.34Z"/><path class="cls-5" d="M1173.08,575.57h68.71V555.22h-95Z"/><path class="cls-5" d="M1063.46,490.76h178.33V470.4H1037.15Z"/><path class="cls-5" d="M1227.9,618h13.89V597.63h-40.2Z"/><path class="cls-5" d="M912.71,362.86c-.56.2-1.1.43-1.64.67h21.49A26.2,26.2,0,0,0,912.71,362.86Z"/><path class="cls-5" d="M951.47,385.59H937.65a20.52,20.52,0,0,1,.61,8.31l13.14,10.16A33.89,33.89,0,0,0,951.47,385.59Z"/><path class="cls-5" d="M1118.27,533.16h123.52V512.81H1092Q1105.11,523,1118.27,533.16Z"/><path class="cls-5" d="M1086.72,810.41a33.85,33.85,0,0,1-6.23,19.61h161.3V809.66H1086.7C1086.71,809.91,1086.72,810.16,1086.72,810.41Z"/><path class="cls-5" d="M1018.73,810.41c0-.25,0-.5,0-.75H808.25L753.58,830H1025A33.85,33.85,0,0,1,1018.73,810.41Z"/><path class="cls-5" d="M789.39,278.72h452.4V258.37H763.08Z"/><path class="cls-5" d="M981.41,745.2h260.38V724.85H1036.08Z"/><path class="cls-5" d="M1095.32,702.79h146.47V682.44H1150Z"/><path class="cls-5" d="M639.67,872.42h602.12V852.07H694.34Z"/><path class="cls-5" d="M728.58,226.32l-3.1,3,9.09,7h507.22V211.77H711.23Z"/><path class="cls-5" d="M867.5,787.61h160a34,34,0,0,1,50.42,0h163.85V767.26H922.16Z"/><path class="cls-6" d="M624.6,878h617.19v-5.62H639.67Z"/><path class="cls-4" d="M1052.73,844.41A34,34,0,0,1,1025,830H753.58l-59.24,22.05h547.45V830h-161.3A33.94,33.94,0,0,1,1052.73,844.41Z"/><path class="cls-4" d="M1086.7,809.66h155.09v-22H1077.94A33.84,33.84,0,0,1,1086.7,809.66Z"/><path class="cls-4" d="M1027.52,787.61h-160l-59.25,22h210.5A33.9,33.9,0,0,1,1027.52,787.61Z"/><path class="cls-4" d="M922.16,767.26h319.63V745.2H981.41Z"/><path class="cls-4" d="M1036.08,724.85h205.71V702.79H1095.32Z"/><path class="cls-4" d="M1150,682.44h91.8V660.39h-32.55Z"/><path class="cls-6" d="M1227.9,618l13.89,10.75V618Z"/><path class="cls-4" d="M1201.59,597.63h40.2V575.57h-68.71Z"/><path class="cls-4" d="M1146.78,555.22h95V533.16H1118.27Z"/><path class="cls-4" d="M1092,512.81h149.82v-22H1063.46Z"/><path class="cls-4" d="M1037.15,470.4h204.64v-22H1008.64Z"/><path class="cls-4" d="M959.42,410.26,982.34,428h259.45V405.94h-281A44.37,44.37,0,0,1,959.42,410.26Z"/><path class="cls-6" d="M922.37,381.06a8.74,8.74,0,0,0-1.3-.46l6.09,4.71A11.08,11.08,0,0,0,922.37,381.06Z"/><path class="cls-4" d="M959.61,379.57a44.81,44.81,0,0,1,1.74,6h280.44V363.53H949.3A43.53,43.53,0,0,1,959.61,379.57Z"/><path class="cls-6" d="M950.61,382.89a33.94,33.94,0,0,0-17.73-19.22l-.32-.14H911.07a26,26,0,0,0-6.61,4.22l6.45,5a18.08,18.08,0,0,1,2.05-.93,17.48,17.48,0,0,1,13.43.54A20.61,20.61,0,0,1,937.16,384c.19.51.34,1,.49,1.56h13.82C951.22,384.68,950.94,383.78,950.61,382.89Z"/><path class="cls-4" d="M958.53,321.21l-.2-.09H899a70.66,70.66,0,0,0-27,21.5l.72.56h369.08V321.12H958.57Z"/><path class="cls-4" d="M880.18,321.12h-36l20.2,15.64A80.07,80.07,0,0,1,880.18,321.12Z"/><path class="cls-4" d="M817.9,300.77h423.89v-22H789.39Z"/><path class="cls-4" d="M763.08,258.37h478.71V236.31H734.57Z"/><path class="cls-7" d="M1201.59,597.63l-28.51-22.06-26.3-20.35-28.51-22.06Q1105.12,523,1092,512.81l-28.51-22-26.31-20.36-28.51-22L982.34,428l-22.92-17.74c-.36.93-.74,1.86-1.16,2.77a53.19,53.19,0,0,1-24.36,25.23,8.24,8.24,0,0,1,.26,2,8.15,8.15,0,0,1-15.7,3.08,53.29,53.29,0,0,1-12.57.6,8.14,8.14,0,0,1-15.18-3.36c-1.16-.44-2.31-.91-3.44-1.43a65.24,65.24,0,0,1-34.08-36.94c-.32-.86-.61-1.73-.89-2.6a8.15,8.15,0,1,1-2.23-9.11,65.12,65.12,0,0,1,5.14-38.5,81.43,81.43,0,0,1,9.19-15.24l-20.2-15.64-26.3-20.35-28.51-22-26.31-20.35-28.51-22.06-9.09-7-35.74,34.1a8.14,8.14,0,0,1-11.21,10.7l-1,.95,29.7,26.88a8,8,0,0,1,2.09-.28,8.16,8.16,0,1,1-6,13.66l-41.76,31.88a8.13,8.13,0,0,1,.92,2l39.2,41.7a8.15,8.15,0,1,1,10.63,11.31l11,11.72-7,6.57-27.07-28.8a8.07,8.07,0,0,1,.5,2.79,8.16,8.16,0,1,1-8.15-8.15,8.05,8.05,0,0,1,3.25.68l-26.47-28.15a8.14,8.14,0,0,1-10.71-11.41l-.94-1,38.71-29.55a8.13,8.13,0,1,1,3-2.29l10-7.65-35-31.7,11.13-10.63a8.14,8.14,0,0,1,5.87-5.6L708,232.69a8.13,8.13,0,0,1-3.53-14.06L665,185.5l2.41-1.16L429.13,0h-17A8.15,8.15,0,1,1,404,8.15,8.15,8.15,0,0,1,412.12,0H400.18V610.48l2.16-1.74A8.15,8.15,0,1,1,415,598.55l41-32.92a8.14,8.14,0,0,1,12.55-10.08l26-20.86,2,22a8.14,8.14,0,0,1,.83,9.26q5.6,62.07,11.18,124.16c0-.1,0-.19,0-.28a8.26,8.26,0,1,1,.1,1.18l3.12,34.66A8.16,8.16,0,1,1,513,739.75l2.43,27c.24,0,.48,0,.72,0a8.15,8.15,0,0,1,.74,16.27c.14,1.5.27,3,.41,4.5l-21-9.43a8.15,8.15,0,0,1-14.87-6.68L409.1,738.9a7.67,7.67,0,0,1-1.45.14,8.14,8.14,0,0,1-6.95-3.91l-.52-.23v34.69a8.15,8.15,0,1,1,0,7.62v34.44a8.16,8.16,0,1,1,0,8.52v33.59a8.16,8.16,0,1,1,0,9.33V878H624.6l15.07-5.62,54.67-20.35L753.58,830l54.67-20.36,59.25-22,54.66-20.35,59.25-22.06,54.67-20.35,59.24-22.06L1150,682.44l59.25-22.05,32.55-12.12V628.73L1227.9,618ZM701.43,267.27a8.15,8.15,0,1,1,8.15,8.15A8.15,8.15,0,0,1,701.43,267.27Zm27.18.37a8.16,8.16,0,1,1,8.15,8.15A8.15,8.15,0,0,1,728.61,267.64Zm27.19.36a8.15,8.15,0,0,1,8.15-8.15h.18l7.66,5.92a8.15,8.15,0,1,1-16,2.22Zm-27.45,42.15a8.15,8.15,0,1,1,8.15,8.15A8.15,8.15,0,0,1,728.35,310.15Zm27.18.37a8.16,8.16,0,1,1,8.16,8.15A8.16,8.16,0,0,1,755.53,310.52Zm27.19.36a8.15,8.15,0,1,1,8.15,8.16A8.15,8.15,0,0,1,782.72,310.88Zm27.18.37a8.17,8.17,0,0,1,10.6-7.78l4.45,3.44a8.15,8.15,0,1,1-15.05,4.34ZM673.72,351.93a8.15,8.15,0,1,1,8.15,8.15A8.15,8.15,0,0,1,673.72,351.93Zm27.18.37a8.16,8.16,0,1,1,8.15,8.15A8.15,8.15,0,0,1,700.9,352.3Zm27.19.36a8.15,8.15,0,1,1,8.15,8.16A8.15,8.15,0,0,1,728.09,352.66Zm27.18.37a8.16,8.16,0,1,1,8.15,8.15A8.15,8.15,0,0,1,755.27,353Zm27.19.37a8.15,8.15,0,1,1,8.15,8.15A8.15,8.15,0,0,1,782.46,353.4Zm27.18.36a8.16,8.16,0,1,1,8.15,8.16A8.15,8.15,0,0,1,809.64,353.76Zm27.19.37a8.15,8.15,0,1,1,8.15,8.15A8.15,8.15,0,0,1,836.83,354.13Zm-109,41.05a8.16,8.16,0,1,1,8.16,8.15A8.16,8.16,0,0,1,727.82,395.18Zm27.19.36a8.15,8.15,0,1,1,8.15,8.16A8.15,8.15,0,0,1,755,395.54Zm27.18.37a8.16,8.16,0,1,1,8.16,8.15A8.15,8.15,0,0,1,782.19,395.91Zm27.19.37a8.15,8.15,0,1,1,8.15,8.15A8.15,8.15,0,0,1,809.38,396.28ZM469.91,774.13a8.15,8.15,0,1,1-8.15-8.15A8.15,8.15,0,0,1,469.91,774.13Zm-27.18-.36a8.16,8.16,0,1,1-8.16-8.16A8.15,8.15,0,0,1,442.73,773.77ZM683,855.15l-12,4.48a8.14,8.14,0,0,1,12-4.48Zm-23.29,6.58a8.14,8.14,0,0,1-.31,2.21L647,868.53a8.15,8.15,0,1,1,12.64-6.8Zm-27.18-.37a8.16,8.16,0,1,1-8.16-8.15A8.15,8.15,0,0,1,632.5,861.36ZM605.31,861a8.15,8.15,0,1,1-8.15-8.15A8.15,8.15,0,0,1,605.31,861Zm-27.18-.36a8.16,8.16,0,1,1-8.16-8.16A8.15,8.15,0,0,1,578.13,860.63Zm-27.19-.37a8.15,8.15,0,1,1-8.15-8.15A8.15,8.15,0,0,1,550.94,860.26Zm-27.18-.37a8.16,8.16,0,1,1-8.16-8.15A8.16,8.16,0,0,1,523.76,859.89Zm-27.19-.36a8.15,8.15,0,1,1-8.15-8.16A8.15,8.15,0,0,1,496.57,859.53Zm-27.18-.37a8.16,8.16,0,1,1-8.16-8.15A8.15,8.15,0,0,1,469.39,859.16Zm-27.19-.37a8.16,8.16,0,1,1-8.15-8.15A8.15,8.15,0,0,1,442.2,858.79ZM792.43,814.4l-12.62,4.7a8.15,8.15,0,0,1,12.62-4.7Zm-23.75,6.28a8.05,8.05,0,0,1-.48,2.74l-11.68,4.35a8.15,8.15,0,1,1,12.16-7.09Zm-27.18-.37a8.16,8.16,0,1,1-8.15-8.15A8.15,8.15,0,0,1,741.5,820.31ZM714.31,820a8.15,8.15,0,1,1-8.15-8.15A8.15,8.15,0,0,1,714.31,820Zm-27.18-.37a8.16,8.16,0,1,1-8.15-8.15A8.15,8.15,0,0,1,687.13,819.58Zm-27.19-.37a8.15,8.15,0,1,1-8.15-8.15A8.15,8.15,0,0,1,659.94,819.21Zm-27.18-.36a8.16,8.16,0,1,1-8.15-8.16A8.15,8.15,0,0,1,632.76,818.85Zm-27.19-.37a8.15,8.15,0,1,1-8.15-8.15A8.15,8.15,0,0,1,605.57,818.48Zm-27.18-.37a8.16,8.16,0,1,1-8.15-8.15A8.15,8.15,0,0,1,578.39,818.11Zm-27.19-.36a8.15,8.15,0,1,1-8.15-8.16A8.15,8.15,0,0,1,551.2,817.75ZM524,817.38a8.16,8.16,0,1,1-8.15-8.15A8.15,8.15,0,0,1,524,817.38ZM496.83,817a8.15,8.15,0,1,1-8.15-8.15A8.15,8.15,0,0,1,496.83,817Zm-27.18-.36a8.16,8.16,0,1,1-8.15-8.16A8.15,8.15,0,0,1,469.65,816.65Zm-27.19-.37a8.15,8.15,0,1,1-8.15-8.15A8.15,8.15,0,0,1,442.46,816.28Zm459.39-42.61-13.15,4.89a8.15,8.15,0,0,1,13.15-4.89Zm-24.16,6a8,8,0,0,1-.7,3.29L866.05,787a8.15,8.15,0,1,1,11.64-7.37Zm-27.19-.36a8.15,8.15,0,1,1-8.15-8.16A8.15,8.15,0,0,1,850.5,779.27Zm-27.18-.37a8.16,8.16,0,1,1-8.16-8.15A8.15,8.15,0,0,1,823.32,778.9Zm-27.19-.37a8.15,8.15,0,1,1-8.15-8.15A8.15,8.15,0,0,1,796.13,778.53ZM769,778.17a8.16,8.16,0,1,1-8.16-8.16A8.15,8.15,0,0,1,769,778.17Zm-27.19-.37a8.15,8.15,0,1,1-8.15-8.15A8.15,8.15,0,0,1,741.76,777.8Zm-27.18-.37a8.16,8.16,0,1,1-8.16-8.15A8.16,8.16,0,0,1,714.58,777.43Zm-27.19-.36a8.15,8.15,0,1,1-8.15-8.16A8.15,8.15,0,0,1,687.39,777.07Zm-27.18-.37a8.16,8.16,0,1,1-8.16-8.15A8.15,8.15,0,0,1,660.21,776.7ZM633,776.33a8.15,8.15,0,1,1-8.15-8.15A8.15,8.15,0,0,1,633,776.33ZM605.84,776a8.16,8.16,0,1,1-8.16-8.16A8.15,8.15,0,0,1,605.84,776Zm-27.19-.37a8.15,8.15,0,1,1-8.15-8.15A8.15,8.15,0,0,1,578.65,775.6Zm-27.18-.37a8.16,8.16,0,1,1-8.16-8.15A8.16,8.16,0,0,1,551.47,775.23ZM1205,614a8.16,8.16,0,1,1-8.15-8.15A8.15,8.15,0,0,1,1205,614Zm-27.19-.37a8.15,8.15,0,1,1-8.15-8.15A8.15,8.15,0,0,1,1177.77,613.61Zm-27.18-.36a8.16,8.16,0,1,1-8.15-8.16A8.15,8.15,0,0,1,1150.59,613.25Zm-27.19-.37a8.15,8.15,0,1,1-8.15-8.15A8.15,8.15,0,0,1,1123.4,612.88Zm-27.18-.37a8.16,8.16,0,1,1-8.15-8.15A8.15,8.15,0,0,1,1096.22,612.51Zm-27.19-.36a8.15,8.15,0,1,1-8.15-8.16A8.15,8.15,0,0,1,1069,612.15Zm-27.18-.37a8.16,8.16,0,1,1-8.15-8.15A8.15,8.15,0,0,1,1041.85,611.78Zm-27.19-.37a8.15,8.15,0,1,1-8.15-8.15A8.15,8.15,0,0,1,1014.66,611.41Zm-27.18-.36a8.16,8.16,0,1,1-8.15-8.16A8.15,8.15,0,0,1,987.48,611.05Zm-27.19-.37a8.15,8.15,0,1,1-8.15-8.15A8.15,8.15,0,0,1,960.29,610.68Zm-27.18-.37a8.16,8.16,0,1,1-8.15-8.15A8.15,8.15,0,0,1,933.11,610.31ZM905.92,610a8.15,8.15,0,1,1-8.15-8.16A8.15,8.15,0,0,1,905.92,610Zm-27.18-.37a8.16,8.16,0,1,1-8.15-8.15A8.15,8.15,0,0,1,878.74,609.58Zm-27.19-.37a8.15,8.15,0,1,1-8.15-8.15A8.15,8.15,0,0,1,851.55,609.21Zm-27.18-.36a8.16,8.16,0,1,1-8.15-8.16A8.15,8.15,0,0,1,824.37,608.85Zm-27.19-.37a8.15,8.15,0,1,1-8.15-8.15A8.15,8.15,0,0,1,797.18,608.48ZM770,608.11a8.16,8.16,0,1,1-8.15-8.15A8.16,8.16,0,0,1,770,608.11Zm-27.19-.36a8.15,8.15,0,1,1-8.15-8.16A8.15,8.15,0,0,1,742.81,607.75Zm-27.18-.37a8.16,8.16,0,1,1-8.15-8.15A8.15,8.15,0,0,1,715.63,607.38ZM988,526a8.15,8.15,0,1,1-8.15-8.15A8.15,8.15,0,0,1,988,526Zm19-7.79a8.16,8.16,0,1,1-8.16,8.16A8.15,8.15,0,0,1,1007,518.23Zm-46.22,7.42a8.16,8.16,0,1,1-8.15-8.15A8.15,8.15,0,0,1,960.82,525.65Zm-27.19-.37a8.15,8.15,0,1,1-8.15-8.15A8.15,8.15,0,0,1,933.63,525.28Zm-27.18-.36a8.16,8.16,0,1,1-8.15-8.15A8.15,8.15,0,0,1,906.45,524.92Zm-27.19-.37a8.15,8.15,0,1,1-8.15-8.15A8.15,8.15,0,0,1,879.26,524.55Zm-27.18-.36a8.16,8.16,0,1,1-8.15-8.16A8.15,8.15,0,0,1,852.08,524.19Zm-27.19-.37a8.15,8.15,0,1,1-8.15-8.15A8.15,8.15,0,0,1,824.89,523.82Zm-27.18-.37a8.16,8.16,0,1,1-8.15-8.15A8.15,8.15,0,0,1,797.71,523.45Zm-27.19-.37a8.15,8.15,0,1,1-8.15-8.15A8.15,8.15,0,0,1,770.52,523.08Zm-27.18-.36a8.16,8.16,0,1,1-8.15-8.15A8.15,8.15,0,0,1,743.34,522.72Zm-27.19-.37A8.15,8.15,0,1,1,708,514.2,8.15,8.15,0,0,1,716.15,522.35ZM689,522a8.16,8.16,0,1,1-8.15-8.15A8.15,8.15,0,0,1,689,522Zm-27.19-.36a8.15,8.15,0,1,1-8.15-8.15A8.15,8.15,0,0,1,661.78,521.62Zm-27.18-.37a8.16,8.16,0,1,1-8.15-8.15A8.15,8.15,0,0,1,634.6,521.25Zm-27.19-.37a8.15,8.15,0,1,1-8.15-8.15A8.15,8.15,0,0,1,607.41,520.88Zm-27.18-.36a8.16,8.16,0,1,1-8.15-8.15A8.15,8.15,0,0,1,580.23,520.52ZM553,520.15a8.15,8.15,0,1,1-8.15-8.15A8.15,8.15,0,0,1,553,520.15Zm-27.18-.37a8.16,8.16,0,1,1-8.15-8.15A8.15,8.15,0,0,1,525.86,519.78Zm-27.19-.36a8.15,8.15,0,1,1-8.15-8.16A8.15,8.15,0,0,1,498.67,519.42Zm-27.18-.37a8.16,8.16,0,1,1-8.15-8.15A8.15,8.15,0,0,1,471.49,519.05Zm-27.19-.37a8.15,8.15,0,1,1-8.15-8.15A8.15,8.15,0,0,1,444.3,518.68Zm620.2-26.44a8,8,0,0,1-2.83.52,8.15,8.15,0,0,1-8.15-8.15,7.56,7.56,0,0,1,0-.83Zm-21.86-8a8.16,8.16,0,1,1-8.15-8.15A8.15,8.15,0,0,1,1042.64,484.24Zm-27.19-.37a8.15,8.15,0,1,1-8.15-8.15A8.15,8.15,0,0,1,1015.45,483.87Zm-27.18-.37a8.16,8.16,0,1,1-8.15-8.15A8.15,8.15,0,0,1,988.27,483.5Zm-27.19-.36a8.15,8.15,0,1,1-8.15-8.15A8.15,8.15,0,0,1,961.08,483.14Zm-27.18-.37a8.16,8.16,0,1,1-8.15-8.15A8.15,8.15,0,0,1,933.9,482.77Zm-27.19-.37a8.15,8.15,0,1,1-8.15-8.15A8.15,8.15,0,0,1,906.71,482.4ZM879.53,482a8.16,8.16,0,1,1-8.16-8.15A8.15,8.15,0,0,1,879.53,482Zm-27.19-.37a8.15,8.15,0,1,1-8.15-8.15A8.15,8.15,0,0,1,852.34,481.67Zm-27.18-.37a8.16,8.16,0,1,1-8.16-8.15A8.16,8.16,0,0,1,825.16,481.3ZM798,480.94a8.15,8.15,0,1,1-8.15-8.16A8.15,8.15,0,0,1,798,480.94Zm-27.18-.37a8.16,8.16,0,1,1-8.16-8.15A8.15,8.15,0,0,1,770.79,480.57Zm-27.19-.37a8.15,8.15,0,1,1-8.15-8.15A8.15,8.15,0,0,1,743.6,480.2Zm-27.18-.36a8.16,8.16,0,1,1-8.16-8.15A8.15,8.15,0,0,1,716.42,479.84Zm-27.19-.37a8.15,8.15,0,1,1-8.15-8.15A8.15,8.15,0,0,1,689.23,479.47Zm-27.18-.37a8.16,8.16,0,1,1-8.16-8.15A8.16,8.16,0,0,1,662.05,479.1Zm-27.19-.36a8.15,8.15,0,1,1-8.15-8.16A8.15,8.15,0,0,1,634.86,478.74Zm-27.18-.37a8.16,8.16,0,1,1-8.16-8.15A8.15,8.15,0,0,1,607.68,478.37ZM580.49,478a8.15,8.15,0,1,1-8.15-8.15A8.15,8.15,0,0,1,580.49,478Zm-27.18-.36a8.16,8.16,0,1,1-8.16-8.16A8.15,8.15,0,0,1,553.31,477.64Zm-27.19-.37a8.15,8.15,0,1,1-8.15-8.15A8.15,8.15,0,0,1,526.12,477.27Zm-27.18-.37a8.16,8.16,0,1,1-8.16-8.15A8.16,8.16,0,0,1,498.94,476.9Zm-27.19-.36a8.15,8.15,0,1,1-8.15-8.16A8.15,8.15,0,0,1,471.75,476.54Zm-27.18-.37a8.16,8.16,0,1,1-8.16-8.15A8.15,8.15,0,0,1,444.57,476.17Zm564.51-26.81a7.61,7.61,0,0,1-1.52.15,8.15,8.15,0,0,1-8.12-7.6ZM988.53,441a8.15,8.15,0,1,1-8.15-8.15A8.15,8.15,0,0,1,988.53,441ZM945,440.62a8.16,8.16,0,1,1,8.15,8.16A8.15,8.15,0,0,1,945,440.62Zm-65.25-1.1a8.16,8.16,0,1,1-8.15-8.15A8.15,8.15,0,0,1,879.79,439.52Zm-27.18-.36a8.16,8.16,0,1,1-8.16-8.16A8.15,8.15,0,0,1,852.61,439.16Zm-27.19-.37a8.16,8.16,0,1,1-8.15-8.15A8.15,8.15,0,0,1,825.42,438.79Zm-27.18-.37a8.16,8.16,0,1,1-8.16-8.15A8.16,8.16,0,0,1,798.24,438.42Zm-27.19-.36a8.15,8.15,0,1,1-8.15-8.16A8.15,8.15,0,0,1,771.05,438.06Zm-27.18-.37a8.16,8.16,0,1,1-8.16-8.15A8.15,8.15,0,0,1,743.87,437.69Zm-27.19-.37a8.16,8.16,0,1,1-8.15-8.15A8.15,8.15,0,0,1,716.68,437.32ZM689.5,437a8.16,8.16,0,1,1-8.16-8.16A8.15,8.15,0,0,1,689.5,437Zm-27.19-.37a8.15,8.15,0,1,1-8.15-8.15A8.15,8.15,0,0,1,662.31,436.59Zm-27.18-.37a8.16,8.16,0,1,1-8.16-8.15A8.16,8.16,0,0,1,635.13,436.22Zm-27.19-.36a8.15,8.15,0,1,1-8.15-8.16A8.15,8.15,0,0,1,607.94,435.86Zm-27.18-.37a8.16,8.16,0,1,1-8.16-8.15A8.15,8.15,0,0,1,580.76,435.49Zm-27.19-.37a8.15,8.15,0,1,1-8.15-8.15A8.15,8.15,0,0,1,553.57,435.12Zm-27.18-.36a8.16,8.16,0,1,1-8.16-8.16A8.15,8.15,0,0,1,526.39,434.76Zm-27.19-.37a8.15,8.15,0,1,1-8.15-8.15A8.15,8.15,0,0,1,499.2,434.39ZM472,434a8.16,8.16,0,1,1-8.16-8.15A8.16,8.16,0,0,1,472,434Zm-27.19-.36a8.16,8.16,0,1,1-8.15-8.16A8.15,8.15,0,0,1,444.83,433.66Zm217.74-39.58a8.15,8.15,0,1,1-8.15-8.16A8.15,8.15,0,0,1,662.57,394.08Zm-27.18-.37a8.16,8.16,0,1,1-8.15-8.15A8.15,8.15,0,0,1,635.39,393.71Zm-27.19-.37a8.15,8.15,0,1,1-8.15-8.15A8.15,8.15,0,0,1,608.2,393.34ZM581,393a8.16,8.16,0,1,1-8.15-8.16A8.15,8.15,0,0,1,581,393Zm-27.19-.37a8.15,8.15,0,1,1-8.15-8.15A8.15,8.15,0,0,1,553.83,392.61Zm-27.18-.37a8.16,8.16,0,1,1-8.15-8.15A8.15,8.15,0,0,1,526.65,392.24Zm-27.19-.36a8.15,8.15,0,1,1-8.15-8.16A8.15,8.15,0,0,1,499.46,391.88Zm-27.18-.37a8.16,8.16,0,1,1-8.15-8.15A8.15,8.15,0,0,1,472.28,391.51Zm-27.19-.37a8.15,8.15,0,1,1-8.15-8.15A8.15,8.15,0,0,1,445.09,391.14ZM635.65,351.2A8.15,8.15,0,1,1,627.5,343,8.15,8.15,0,0,1,635.65,351.2Zm-27.18-.37a8.16,8.16,0,1,1-8.16-8.15A8.15,8.15,0,0,1,608.47,350.83Zm-27.19-.37a8.15,8.15,0,1,1-8.15-8.15A8.16,8.16,0,0,1,581.28,350.46Zm-27.18-.36a8.16,8.16,0,1,1-8.16-8.16A8.15,8.15,0,0,1,554.1,350.1Zm-27.19-.37a8.15,8.15,0,1,1-8.15-8.15A8.15,8.15,0,0,1,526.91,349.73Zm-27.18-.37a8.16,8.16,0,1,1-8.16-8.15A8.16,8.16,0,0,1,499.73,349.36ZM472.54,349a8.15,8.15,0,1,1-8.15-8.16A8.15,8.15,0,0,1,472.54,349Zm-27.18-.37a8.16,8.16,0,1,1-8.16-8.15A8.15,8.15,0,0,1,445.36,348.63ZM663.1,309.05A8.16,8.16,0,1,1,655,300.9,8.15,8.15,0,0,1,663.1,309.05Zm-27.19-.37a8.15,8.15,0,1,1-8.15-8.15A8.16,8.16,0,0,1,635.91,308.68Zm-27.18-.36a8.16,8.16,0,1,1-8.15-8.16A8.15,8.15,0,0,1,608.73,308.32ZM581.54,308a8.15,8.15,0,1,1-8.15-8.15A8.15,8.15,0,0,1,581.54,308Zm-27.18-.37a8.16,8.16,0,1,1-8.15-8.15A8.16,8.16,0,0,1,554.36,307.58Zm-27.19-.36a8.15,8.15,0,1,1-8.15-8.16A8.15,8.15,0,0,1,527.17,307.22ZM500,306.85a8.16,8.16,0,1,1-8.15-8.15A8.15,8.15,0,0,1,500,306.85Zm-27.19-.37a8.15,8.15,0,1,1-8.15-8.15A8.15,8.15,0,0,1,472.8,306.48Zm-27.18-.36a8.16,8.16,0,1,1-8.15-8.16A8.15,8.15,0,0,1,445.62,306.12Zm217.74-39.58a8.15,8.15,0,1,1-8.15-8.16A8.15,8.15,0,0,1,663.36,266.54Zm-27.18-.37A8.16,8.16,0,1,1,628,258,8.15,8.15,0,0,1,636.18,266.17ZM609,265.8a8.15,8.15,0,1,1-8.15-8.15A8.15,8.15,0,0,1,609,265.8Zm-27.18-.36a8.16,8.16,0,1,1-8.16-8.16A8.15,8.15,0,0,1,581.81,265.44Zm-27.19-.37a8.15,8.15,0,1,1-8.15-8.15A8.15,8.15,0,0,1,554.62,265.07Zm-27.18-.37a8.16,8.16,0,1,1-8.16-8.15A8.15,8.15,0,0,1,527.44,264.7Zm-27.19-.37a8.15,8.15,0,1,1-8.15-8.15A8.15,8.15,0,0,1,500.25,264.33ZM473.07,264a8.16,8.16,0,1,1-8.16-8.15A8.15,8.15,0,0,1,473.07,264Zm-27.19-.37a8.15,8.15,0,1,1-8.15-8.15A8.15,8.15,0,0,1,445.88,263.6Zm244.93-39.21a8.15,8.15,0,1,1-8.15-8.15A8.15,8.15,0,0,1,690.81,224.39ZM663.63,224a8.16,8.16,0,1,1-8.16-8.15A8.15,8.15,0,0,1,663.63,224Zm-27.19-.36a8.16,8.16,0,1,1-8.15-8.16A8.15,8.15,0,0,1,636.44,223.66Zm-27.18-.37a8.16,8.16,0,1,1-8.16-8.15A8.16,8.16,0,0,1,609.26,223.29Zm-27.19-.37a8.16,8.16,0,1,1-8.15-8.15A8.15,8.15,0,0,1,582.07,222.92Zm-27.18-.37a8.16,8.16,0,1,1-8.16-8.15A8.16,8.16,0,0,1,554.89,222.55Zm-27.19-.36a8.16,8.16,0,1,1-8.15-8.15A8.15,8.15,0,0,1,527.7,222.19Zm-27.18-.37a8.16,8.16,0,1,1-8.16-8.15A8.16,8.16,0,0,1,500.52,221.82Zm-27.19-.37a8.16,8.16,0,1,1-8.15-8.15A8.15,8.15,0,0,1,473.33,221.45Zm-27.18-.36a8.16,8.16,0,1,1-8.16-8.15A8.16,8.16,0,0,1,446.15,221.09Zm-15-212.57a8.08,8.08,0,0,1,1.7-5l12.88,10a8.15,8.15,0,0,1-14.58-5ZM403.71,50.67a8.15,8.15,0,1,1,8.15,8.15A8.15,8.15,0,0,1,403.71,50.67Zm27.18.36A8.16,8.16,0,1,1,439,59.19,8.15,8.15,0,0,1,430.89,51Zm27.19.37a8.15,8.15,0,1,1,8.15,8.15A8.15,8.15,0,0,1,458.08,51.4Zm27.18.37A8.11,8.11,0,0,1,487.68,46l12.78,9.88a8.15,8.15,0,0,1-15.2-4.09ZM403.44,93.18a8.16,8.16,0,1,1,8.16,8.15A8.15,8.15,0,0,1,403.44,93.18Zm27.19.37a8.15,8.15,0,1,1,8.15,8.15A8.15,8.15,0,0,1,430.63,93.55Zm27.18.36a8.16,8.16,0,1,1,8.16,8.16A8.15,8.15,0,0,1,457.81,93.91Zm27.19.37a8.15,8.15,0,1,1,8.15,8.15A8.15,8.15,0,0,1,485,94.28Zm27.18.37a8.16,8.16,0,1,1,8.16,8.15A8.16,8.16,0,0,1,512.18,94.65Zm27.19.36a8.12,8.12,0,0,1,3.27-6.51l12.42,9.61A8.15,8.15,0,0,1,539.37,95ZM403.18,135.69a8.16,8.16,0,1,1,8.15,8.16A8.15,8.15,0,0,1,403.18,135.69Zm27.19.37a8.15,8.15,0,1,1,8.15,8.15A8.15,8.15,0,0,1,430.37,136.06Zm27.18.37a8.16,8.16,0,1,1,8.15,8.15A8.15,8.15,0,0,1,457.55,136.43Zm27.19.36a8.15,8.15,0,1,1,8.15,8.16A8.15,8.15,0,0,1,484.74,136.79Zm27.18.37a8.16,8.16,0,1,1,8.15,8.15A8.15,8.15,0,0,1,511.92,137.16Zm27.19.37a8.15,8.15,0,1,1,8.15,8.15A8.15,8.15,0,0,1,539.11,137.53Zm27.18.36a8.16,8.16,0,1,1,8.15,8.16A8.15,8.15,0,0,1,566.29,137.89Zm27.19.37a8.14,8.14,0,0,1,4.24-7.15l11.81,9.14a8.15,8.15,0,0,1-16-2Zm-190.56,40a8.15,8.15,0,1,1,8.15,8.15A8.15,8.15,0,0,1,402.92,178.21Zm27.18.36a8.16,8.16,0,1,1,8.16,8.16A8.15,8.15,0,0,1,430.1,178.57Zm27.19.37a8.15,8.15,0,1,1,8.15,8.15A8.15,8.15,0,0,1,457.29,178.94Zm27.18.37a8.16,8.16,0,1,1,8.16,8.15A8.16,8.16,0,0,1,484.47,179.31Zm27.19.36a8.15,8.15,0,1,1,8.15,8.16A8.15,8.15,0,0,1,511.66,179.67Zm27.18.37a8.16,8.16,0,1,1,8.16,8.15A8.15,8.15,0,0,1,538.84,180Zm27.19.37a8.15,8.15,0,1,1,8.15,8.15A8.15,8.15,0,0,1,566,180.41Zm27.18.36a8.16,8.16,0,1,1,8.16,8.16A8.15,8.15,0,0,1,593.21,180.77Zm27.19.37a8.15,8.15,0,1,1,8.15,8.15A8.15,8.15,0,0,1,620.4,181.14Zm27.18.37a8.16,8.16,0,0,1,5.38-7.66l10.89,8.42a8.15,8.15,0,0,1-16.27-.76ZM402.66,220.72a8.15,8.15,0,1,1,8.15,8.15A8.15,8.15,0,0,1,402.66,220.72Zm-.27,42.52a8.16,8.16,0,1,1,8.15,8.15A8.15,8.15,0,0,1,402.39,263.24Zm-.26,42.51a8.15,8.15,0,1,1,8.15,8.15A8.15,8.15,0,0,1,402.13,305.75Zm-.26,42.51a8.15,8.15,0,1,1,8.15,8.16A8.15,8.15,0,0,1,401.87,348.26Zm-.27,42.52a8.16,8.16,0,1,1,8.16,8.15A8.16,8.16,0,0,1,401.6,390.78Zm-.26,42.51a8.16,8.16,0,1,1,8.15,8.15A8.15,8.15,0,0,1,401.34,433.29Zm-.26,42.51a8.15,8.15,0,1,1,8.15,8.16A8.15,8.15,0,0,1,401.08,475.8Zm-.27,42.52a8.16,8.16,0,1,1,8.16,8.15A8.16,8.16,0,0,1,400.81,518.32Zm-.26,42.51A8.16,8.16,0,1,1,408.7,569,8.15,8.15,0,0,1,400.55,560.83Zm43.49.37a8.15,8.15,0,1,1-8.15-8.15A8.15,8.15,0,0,1,444,561.2Zm582-34.45a8.15,8.15,0,1,1,8.15,8.15A8.15,8.15,0,0,1,1026.07,526.75Zm27.18.37a8.16,8.16,0,1,1,8.16,8.15A8.15,8.15,0,0,1,1053.25,527.12Zm27.19.37a8.15,8.15,0,1,1,8.15,8.15A8.15,8.15,0,0,1,1080.44,527.49Zm27.18.36a8.15,8.15,0,0,1,.27-2l11.85,9.17a8.15,8.15,0,0,1-12.12-7.13ZM509.29,562.3a8.16,8.16,0,1,1,8.15,8.15A8.15,8.15,0,0,1,509.29,562.3Zm27.19.36a8.15,8.15,0,1,1,8.15,8.16A8.15,8.15,0,0,1,536.48,562.66Zm27.18.37a8.16,8.16,0,1,1,8.15,8.15A8.15,8.15,0,0,1,563.66,563Zm27.19.37a8.15,8.15,0,1,1,8.15,8.15A8.15,8.15,0,0,1,590.85,563.4Zm27.18.37a8.16,8.16,0,1,1,8.15,8.15A8.15,8.15,0,0,1,618,563.77Zm27.19.36a8.15,8.15,0,1,1,8.15,8.15A8.15,8.15,0,0,1,645.22,564.13Zm27.18.37a8.16,8.16,0,1,1,8.15,8.15A8.15,8.15,0,0,1,672.4,564.5Zm27.19.36a8.15,8.15,0,1,1,8.15,8.16A8.15,8.15,0,0,1,699.59,564.86Zm27.18.37a8.16,8.16,0,1,1,8.15,8.15A8.15,8.15,0,0,1,726.77,565.23Zm27.19.37a8.15,8.15,0,1,1,8.15,8.15A8.15,8.15,0,0,1,754,565.6Zm27.18.37a8.16,8.16,0,1,1,8.15,8.15A8.15,8.15,0,0,1,781.14,566Zm27.19.36a8.15,8.15,0,1,1,8.15,8.15A8.15,8.15,0,0,1,808.33,566.33Zm27.18.37a8.16,8.16,0,1,1,8.15,8.15A8.15,8.15,0,0,1,835.51,566.7Zm27.19.37a8.15,8.15,0,1,1,8.15,8.15A8.15,8.15,0,0,1,862.7,567.07Zm27.18.36a8.16,8.16,0,1,1,8.15,8.16A8.15,8.15,0,0,1,889.88,567.43Zm27.19.37a8.15,8.15,0,1,1,8.15,8.15A8.15,8.15,0,0,1,917.07,567.8Zm27.18.37a8.16,8.16,0,1,1,8.15,8.15A8.15,8.15,0,0,1,944.25,568.17Zm27.19.36a8.15,8.15,0,1,1,8.15,8.16A8.15,8.15,0,0,1,971.44,568.53Zm27.18.37a8.16,8.16,0,1,1,8.15,8.15A8.15,8.15,0,0,1,998.62,568.9Zm27.19.37a8.15,8.15,0,1,1,8.15,8.15A8.15,8.15,0,0,1,1025.81,569.27Zm27.18.36a8.16,8.16,0,1,1,8.15,8.16A8.15,8.15,0,0,1,1053,569.63Zm27.19.37a8.15,8.15,0,1,1,8.15,8.15A8.15,8.15,0,0,1,1080.18,570Zm27.18.37a8.16,8.16,0,1,1,8.15,8.15A8.15,8.15,0,0,1,1107.36,570.37Zm27.19.36a8.15,8.15,0,1,1,8.15,8.16A8.15,8.15,0,0,1,1134.55,570.73Zm27.18.37a8.23,8.23,0,0,1,.63-3.15l12.45,9.64a8.15,8.15,0,0,1-13.08-6.49ZM509,604.81a8.15,8.15,0,1,1,8.15,8.15A8.15,8.15,0,0,1,509,604.81Zm27.18.37a8.16,8.16,0,1,1,8.16,8.15A8.15,8.15,0,0,1,536.21,605.18Zm27.19.37a8.15,8.15,0,1,1,8.15,8.15A8.15,8.15,0,0,1,563.4,605.55Zm27.18.36a8.16,8.16,0,1,1,8.16,8.15A8.15,8.15,0,0,1,590.58,605.91Zm27.19.37a8.15,8.15,0,1,1,8.15,8.15A8.15,8.15,0,0,1,617.77,606.28Zm27.18.37a8.16,8.16,0,1,1,8.16,8.15A8.16,8.16,0,0,1,645,606.65ZM508.76,647.33a8.16,8.16,0,1,1,8.16,8.15A8.16,8.16,0,0,1,508.76,647.33Zm27.19.36a8.16,8.16,0,1,1,8.15,8.15A8.15,8.15,0,0,1,536,647.69Zm27.19.37a8.15,8.15,0,1,1,8.15,8.15A8.15,8.15,0,0,1,563.14,648.06Zm27.18.37a8.16,8.16,0,1,1,8.15,8.15A8.15,8.15,0,0,1,590.32,648.43Zm27.18.36a8.16,8.16,0,1,1,8.16,8.16A8.16,8.16,0,0,1,617.5,648.79Zm27.19.37a8.16,8.16,0,1,1,8.15,8.15A8.15,8.15,0,0,1,644.69,649.16Zm-109,41.05a8.15,8.15,0,1,1,8.15,8.15A8.15,8.15,0,0,1,535.69,690.21Zm27.18.36a8.16,8.16,0,1,1,8.15,8.16A8.15,8.15,0,0,1,562.87,690.57Zm27.19.37a8.15,8.15,0,1,1,8.15,8.15A8.15,8.15,0,0,1,590.06,690.94Zm27.18.37a8.16,8.16,0,1,1,8.15,8.15A8.15,8.15,0,0,1,617.24,691.31Zm27.19.36a8.15,8.15,0,1,1,8.15,8.16A8.15,8.15,0,0,1,644.43,691.67Zm27.18.37a8.16,8.16,0,1,1,8.16,8.15A8.15,8.15,0,0,1,671.61,692ZM535.42,732.72a8.16,8.16,0,1,1,8.16,8.15A8.15,8.15,0,0,1,535.42,732.72Zm27.19.37a8.15,8.15,0,1,1,8.15,8.15A8.15,8.15,0,0,1,562.61,733.09Zm27.18.36a8.16,8.16,0,1,1,8.16,8.16A8.15,8.15,0,0,1,589.79,733.45Zm27.19.37a8.15,8.15,0,1,1,8.15,8.15A8.15,8.15,0,0,1,617,733.82Zm27.18.37a8.16,8.16,0,1,1,8.16,8.15A8.16,8.16,0,0,1,644.16,734.19Zm27.19.36a8.15,8.15,0,1,1,8.15,8.16A8.15,8.15,0,0,1,671.35,734.55Zm27.18.37a8.16,8.16,0,1,1,8.16,8.15A8.15,8.15,0,0,1,698.53,734.92Zm312.69-2L997.63,738a8.13,8.13,0,0,1,13.59-5.06Zm-24.53,5.64a8.06,8.06,0,0,1-1,3.85l-10.09,3.76a8.15,8.15,0,1,1,11.06-7.61Zm-27.19-.37a8.15,8.15,0,1,1-8.15-8.15A8.15,8.15,0,0,1,959.5,738.22Zm-27.18-.37a8.16,8.16,0,1,1-8.15-8.15A8.15,8.15,0,0,1,932.32,737.85Zm-27.19-.36a8.15,8.15,0,1,1-8.15-8.16A8.15,8.15,0,0,1,905.13,737.49ZM878,737.12A8.16,8.16,0,1,1,869.8,729,8.15,8.15,0,0,1,878,737.12Zm-27.19-.37a8.15,8.15,0,1,1-8.15-8.15A8.15,8.15,0,0,1,850.76,736.75Zm-27.18-.36a8.16,8.16,0,1,1-8.15-8.16A8.15,8.15,0,0,1,823.58,736.39ZM796.39,736a8.15,8.15,0,1,1-8.15-8.15A8.15,8.15,0,0,1,796.39,736Zm-27.18-.37a8.16,8.16,0,1,1-8.15-8.15A8.15,8.15,0,0,1,769.21,735.65Zm351.37-43.41-14,5.2a8.13,8.13,0,0,1,14-5.2Zm-24.89,5.3a8.1,8.1,0,0,1-1.33,4.46l-9.06,3.37a8.15,8.15,0,1,1,10.39-7.83Zm-27.18-.37a8.16,8.16,0,1,1-8.16-8.15A8.16,8.16,0,0,1,1068.51,697.17Zm-27.19-.36a8.15,8.15,0,1,1-8.15-8.16A8.15,8.15,0,0,1,1041.32,696.81Zm-27.18-.37a8.16,8.16,0,1,1-8.15-8.15A8.15,8.15,0,0,1,1014.14,696.44ZM987,696.07a8.15,8.15,0,1,1-8.15-8.15A8.15,8.15,0,0,1,987,696.07Zm-27.18-.36a8.16,8.16,0,1,1-8.16-8.16A8.15,8.15,0,0,1,959.77,695.71Zm-27.19-.37a8.15,8.15,0,1,1-8.15-8.15A8.15,8.15,0,0,1,932.58,695.34ZM905.4,695a8.16,8.16,0,1,1-8.16-8.15A8.16,8.16,0,0,1,905.4,695Zm-27.19-.36a8.15,8.15,0,1,1-8.15-8.16A8.15,8.15,0,0,1,878.21,694.61ZM851,694.24a8.16,8.16,0,1,1-8.15-8.15A8.15,8.15,0,0,1,851,694.24Zm-27.19-.37a8.15,8.15,0,1,1-8.15-8.15A8.15,8.15,0,0,1,823.84,693.87Zm-27.18-.36a8.16,8.16,0,1,1-8.15-8.16A8.15,8.15,0,0,1,796.66,693.51Zm-27.19-.37a8.15,8.15,0,1,1-8.15-8.15A8.15,8.15,0,0,1,769.47,693.14Zm460.43-41.6-14.32,5.33h0a8.15,8.15,0,0,1,14.32-5.32Zm-25.2,5a8.12,8.12,0,0,1-1.8,5.1l-7.83,2.92a8.15,8.15,0,1,1,9.63-8Zm-27.19-.36a8.15,8.15,0,1,1-8.15-8.16A8.15,8.15,0,0,1,1177.51,656.13Zm-27.18-.37a8.16,8.16,0,1,1-8.16-8.15A8.15,8.15,0,0,1,1150.33,655.76Zm-27.19-.37a8.15,8.15,0,1,1-8.15-8.15A8.15,8.15,0,0,1,1123.14,655.39ZM1096,655a8.16,8.16,0,1,1-8.16-8.16A8.15,8.15,0,0,1,1096,655Zm-27.19-.37a8.15,8.15,0,1,1-8.15-8.15A8.15,8.15,0,0,1,1068.77,654.66Zm-27.18-.37a8.16,8.16,0,1,1-8.16-8.15A8.16,8.16,0,0,1,1041.59,654.29Zm-27.19-.36a8.15,8.15,0,1,1-8.15-8.16A8.15,8.15,0,0,1,1014.4,653.93Zm-27.18-.37a8.16,8.16,0,1,1-8.16-8.15A8.15,8.15,0,0,1,987.22,653.56ZM960,653.19a8.15,8.15,0,1,1-8.15-8.15A8.15,8.15,0,0,1,960,653.19Zm-27.18-.36a8.16,8.16,0,1,1-8.16-8.16A8.15,8.15,0,0,1,932.85,652.83Zm-27.19-.37a8.15,8.15,0,1,1-8.15-8.15A8.15,8.15,0,0,1,905.66,652.46Zm-27.18-.37a8.16,8.16,0,1,1-8.16-8.15A8.16,8.16,0,0,1,878.48,652.09Zm-27.19-.36a8.15,8.15,0,1,1-8.15-8.16A8.15,8.15,0,0,1,851.29,651.73Zm-27.18-.37a8.16,8.16,0,1,1-8.16-8.15A8.15,8.15,0,0,1,824.11,651.36ZM796.92,651a8.15,8.15,0,1,1-8.15-8.15A8.15,8.15,0,0,1,796.92,651Zm-27.18-.36a8.16,8.16,0,1,1-8.16-8.16A8.15,8.15,0,0,1,769.74,650.63Zm-27.19-.37a8.15,8.15,0,1,1-8.15-8.15A8.15,8.15,0,0,1,742.55,650.26Zm-35.34-8.52a8.16,8.16,0,1,1,0,16.31c-.19,0-.37,0-.56,0L726,692a8.17,8.17,0,1,1,4.61,8.1l16.28,28.58-5.62,3.21a8,8,0,0,1,.73,3.37,8.15,8.15,0,0,1-16.28.46l-20.11-35.31a8.15,8.15,0,0,1-6.27-11l-18.14-31.85a7.74,7.74,0,0,1-1.19.1,8.15,8.15,0,0,1-8.15-8.15,8.07,8.07,0,0,1,1.83-5.15l-17.24-30.27,15.92-9.06a8.14,8.14,0,1,1,9.73,9.9l17.82,31.28A8.14,8.14,0,0,1,707.21,641.74ZM1224,622.5a8.15,8.15,0,0,1-8.15-8.15,8.06,8.06,0,0,1,1.14-4.14l12.78,9.89A8.11,8.11,0,0,1,1224,622.5Z"/><path class="cls-7" d="M868.87,347a8.15,8.15,0,1,1-4.77,8.6c-.06.13-.13.25-.18.38a56.06,56.06,0,0,0,27.37,74.42,43.67,43.67,0,0,0,4.66,1.83,8,8,0,0,1,2.87-.53,8.15,8.15,0,0,1,5.83,2.45A44,44,0,0,0,949.55,409a32.24,32.24,0,0,0,1.29-3.19,8.13,8.13,0,0,1-5.24-5.57l5.63,4.36c.06-.18.11-.37.17-.55L938.26,393.9a20.49,20.49,0,0,1-1.74,6A24.77,24.77,0,0,1,903.69,412a29.77,29.77,0,0,1-14.52-39.46,35.85,35.85,0,0,1,7-10.14,8.17,8.17,0,0,1-3.83-3.3l4,3.11c.12-.13.25-.27.38-.39l-24.07-18.62-.72-.56C870.9,344.06,869.85,345.52,868.87,347Zm11.18,50a8.15,8.15,0,1,1-8.15-8.15A8.15,8.15,0,0,1,880.05,397Z"/><path class="cls-7" d="M907.71,403.27a15.11,15.11,0,0,0,12.6,0,8.15,8.15,0,0,1,6-13.71,8.28,8.28,0,0,1,2.5.39,11.27,11.27,0,0,0-1.61-4.67l-6.09-4.71a8,8,0,0,0-9.28,4.35,5.43,5.43,0,0,0,2.65,7.19l-4,8.71a15,15,0,0,1-3.29-2.11,8.15,8.15,0,0,1-1.45,3.43A19.89,19.89,0,0,0,907.71,403.27Z"/><path class="cls-7" d="M897.88,376.54a20,20,0,0,0-1.29,13.08,8.23,8.23,0,0,1,2.5-.4,8,8,0,0,1,2.83.52,15,15,0,0,1,1.16-8.81,17.48,17.48,0,0,1,7.83-8.19l-6.45-5A26.35,26.35,0,0,0,897.88,376.54Z"/><path class="cls-2" d="M406.86,866.58a8.16,8.16,0,1,0-6.68-12.82v9.33A8.15,8.15,0,0,0,406.86,866.58Z"/><path class="cls-2" d="M425.89,858.79a8.16,8.16,0,1,0,8.16-8.15A8.16,8.16,0,0,0,425.89,858.79Z"/><path class="cls-2" d="M453.08,859.16a8.16,8.16,0,1,0,8.15-8.15A8.15,8.15,0,0,0,453.08,859.16Z"/><path class="cls-2" d="M480.27,859.53a8.15,8.15,0,1,0,8.15-8.16A8.15,8.15,0,0,0,480.27,859.53Z"/><path class="cls-2" d="M507.45,859.89a8.16,8.16,0,1,0,8.15-8.15A8.15,8.15,0,0,0,507.45,859.89Z"/><path class="cls-2" d="M534.64,860.26a8.15,8.15,0,1,0,8.15-8.15A8.15,8.15,0,0,0,534.64,860.26Z"/><path class="cls-2" d="M561.82,860.63a8.16,8.16,0,1,0,8.15-8.16A8.15,8.15,0,0,0,561.82,860.63Z"/><path class="cls-2" d="M589,861a8.15,8.15,0,1,0,8.15-8.15A8.15,8.15,0,0,0,589,861Z"/><path class="cls-2" d="M616.19,861.36a8.16,8.16,0,1,0,8.15-8.15A8.15,8.15,0,0,0,616.19,861.36Z"/><path class="cls-2" d="M643.38,861.73a8.13,8.13,0,0,0,3.66,6.8l12.33-4.59a8.15,8.15,0,1,0-16-2.21Z"/><path class="cls-2" d="M670.94,859.63l12-4.48a8.14,8.14,0,0,0-12,4.48Z"/><path class="cls-2" d="M407.13,824.07a8.16,8.16,0,1,0-6.95-12.42v8.52A8.15,8.15,0,0,0,407.13,824.07Z"/><path class="cls-2" d="M426.16,816.28a8.15,8.15,0,1,0,8.15-8.15A8.15,8.15,0,0,0,426.16,816.28Z"/><path class="cls-2" d="M453.34,816.65a8.16,8.16,0,1,0,8.16-8.16A8.15,8.15,0,0,0,453.34,816.65Z"/><path class="cls-2" d="M480.53,817a8.15,8.15,0,1,0,8.15-8.15A8.15,8.15,0,0,0,480.53,817Z"/><path class="cls-2" d="M507.71,817.38a8.16,8.16,0,1,0,8.16-8.15A8.15,8.15,0,0,0,507.71,817.38Z"/><path class="cls-2" d="M534.9,817.75a8.15,8.15,0,1,0,8.15-8.16A8.15,8.15,0,0,0,534.9,817.75Z"/><path class="cls-2" d="M562.08,818.11a8.16,8.16,0,1,0,8.16-8.15A8.16,8.16,0,0,0,562.08,818.11Z"/><path class="cls-2" d="M589.27,818.48a8.15,8.15,0,1,0,8.15-8.15A8.15,8.15,0,0,0,589.27,818.48Z"/><path class="cls-2" d="M616.45,818.85a8.16,8.16,0,1,0,8.16-8.16A8.15,8.15,0,0,0,616.45,818.85Z"/><path class="cls-2" d="M643.64,819.21a8.15,8.15,0,1,0,8.15-8.15A8.15,8.15,0,0,0,643.64,819.21Z"/><path class="cls-2" d="M670.82,819.58a8.16,8.16,0,1,0,8.16-8.15A8.15,8.15,0,0,0,670.82,819.58Z"/><circle class="cls-2" cx="706.16" cy="819.95" r="8.15"/><path class="cls-2" d="M725.19,820.31a8.16,8.16,0,1,0,8.16-8.15A8.16,8.16,0,0,0,725.19,820.31Z"/><path class="cls-2" d="M752.38,820.68a8.14,8.14,0,0,0,4.14,7.09l11.68-4.35a8.05,8.05,0,0,0,.48-2.74,8.15,8.15,0,0,0-16.3,0Z"/><path class="cls-2" d="M779.81,819.1l12.62-4.7a8.15,8.15,0,0,0-12.62,4.7Z"/><path class="cls-2" d="M407.39,781.55a8.15,8.15,0,1,0-7.21-12v7.62A8.15,8.15,0,0,0,407.39,781.55Z"/><path class="cls-2" d="M426.42,773.77a8.16,8.16,0,1,0,8.15-8.16A8.15,8.15,0,0,0,426.42,773.77Z"/><path class="cls-2" d="M453.61,774.13a8.15,8.15,0,1,0,8.15-8.15A8.15,8.15,0,0,0,453.61,774.13Z"/><path class="cls-2" d="M480.79,774.5a8.15,8.15,0,0,0,15.49,3.55l-14.87-6.68A8.17,8.17,0,0,0,480.79,774.5Z"/><path class="cls-2" d="M516.87,783a8.15,8.15,0,0,0-.74-16.27c-.24,0-.48,0-.72,0Q516.15,774.87,516.87,783Z"/><path class="cls-2" d="M535.16,775.23a8.16,8.16,0,1,0,8.15-8.15A8.15,8.15,0,0,0,535.16,775.23Z"/><path class="cls-2" d="M562.35,775.6a8.15,8.15,0,1,0,8.15-8.15A8.15,8.15,0,0,0,562.35,775.6Z"/><path class="cls-2" d="M589.53,776a8.16,8.16,0,1,0,8.15-8.16A8.15,8.15,0,0,0,589.53,776Z"/><path class="cls-2" d="M616.72,776.33a8.15,8.15,0,1,0,8.15-8.15A8.15,8.15,0,0,0,616.72,776.33Z"/><path class="cls-2" d="M643.9,776.7a8.16,8.16,0,1,0,8.15-8.15A8.15,8.15,0,0,0,643.9,776.7Z"/><path class="cls-2" d="M671.09,777.07a8.15,8.15,0,1,0,8.15-8.16A8.15,8.15,0,0,0,671.09,777.07Z"/><path class="cls-2" d="M698.27,777.43a8.16,8.16,0,1,0,8.15-8.15A8.15,8.15,0,0,0,698.27,777.43Z"/><path class="cls-2" d="M725.46,777.8a8.15,8.15,0,1,0,8.15-8.15A8.15,8.15,0,0,0,725.46,777.8Z"/><circle class="cls-2" cx="760.79" cy="778.17" r="8.15"/><path class="cls-2" d="M779.83,778.53a8.15,8.15,0,1,0,8.15-8.15A8.15,8.15,0,0,0,779.83,778.53Z"/><path class="cls-2" d="M807,778.9a8.16,8.16,0,1,0,8.15-8.15A8.15,8.15,0,0,0,807,778.9Z"/><path class="cls-2" d="M834.2,779.27a8.15,8.15,0,1,0,8.15-8.16A8.15,8.15,0,0,0,834.2,779.27Z"/><path class="cls-2" d="M861.38,779.63a8.15,8.15,0,0,0,4.67,7.37L877,782.92a8,8,0,0,0,.7-3.29,8.16,8.16,0,0,0-16.31,0Z"/><path class="cls-2" d="M888.7,778.56l13.15-4.89a8.15,8.15,0,0,0-13.15,4.89Z"/><path class="cls-2" d="M407.65,739a7.67,7.67,0,0,0,1.45-.14l-8.4-3.77A8.14,8.14,0,0,0,407.65,739Z"/><path class="cls-2" d="M516.39,740.51a8.16,8.16,0,1,0-4.67-14.83L513,739.75A8.11,8.11,0,0,0,516.39,740.51Z"/><path class="cls-2" d="M551.73,732.72a8.16,8.16,0,1,0-8.15,8.15A8.15,8.15,0,0,0,551.73,732.72Z"/><path class="cls-2" d="M578.91,733.09a8.15,8.15,0,1,0-8.15,8.15A8.15,8.15,0,0,0,578.91,733.09Z"/><path class="cls-2" d="M606.1,733.45a8.16,8.16,0,1,0-8.15,8.16A8.15,8.15,0,0,0,606.1,733.45Z"/><path class="cls-2" d="M633.28,733.82a8.15,8.15,0,1,0-8.15,8.15A8.15,8.15,0,0,0,633.28,733.82Z"/><path class="cls-2" d="M660.47,734.19a8.16,8.16,0,1,0-8.15,8.15A8.15,8.15,0,0,0,660.47,734.19Z"/><path class="cls-2" d="M687.65,734.55a8.15,8.15,0,1,0-8.15,8.16A8.15,8.15,0,0,0,687.65,734.55Z"/><path class="cls-2" d="M714.84,734.92a8.16,8.16,0,1,0-8.15,8.15A8.15,8.15,0,0,0,714.84,734.92Z"/><path class="cls-2" d="M725.74,735.75a8.15,8.15,0,0,0,16.28-.46,8,8,0,0,0-.73-3.37l-13.39,7.62Z"/><path class="cls-2" d="M752.9,735.65a8.16,8.16,0,1,0,8.16-8.15A8.16,8.16,0,0,0,752.9,735.65Z"/><path class="cls-2" d="M780.09,736a8.15,8.15,0,1,0,8.15-8.15A8.15,8.15,0,0,0,780.09,736Z"/><path class="cls-2" d="M807.27,736.39a8.16,8.16,0,1,0,8.16-8.16A8.15,8.15,0,0,0,807.27,736.39Z"/><path class="cls-2" d="M834.46,736.75a8.15,8.15,0,1,0,8.15-8.15A8.15,8.15,0,0,0,834.46,736.75Z"/><path class="cls-2" d="M861.64,737.12A8.16,8.16,0,1,0,869.8,729,8.15,8.15,0,0,0,861.64,737.12Z"/><path class="cls-2" d="M888.83,737.49a8.15,8.15,0,1,0,8.15-8.16A8.15,8.15,0,0,0,888.83,737.49Z"/><path class="cls-2" d="M916,737.85a8.16,8.16,0,1,0,8.16-8.15A8.16,8.16,0,0,0,916,737.85Z"/><path class="cls-2" d="M943.2,738.22a8.15,8.15,0,1,0,8.15-8.15A8.15,8.15,0,0,0,943.2,738.22Z"/><path class="cls-2" d="M970.38,738.59a8.16,8.16,0,0,0,5.25,7.61l10.09-3.76a8.06,8.06,0,0,0,1-3.85,8.16,8.16,0,1,0-16.31,0Z"/><path class="cls-2" d="M997.63,738l13.59-5.06A8.13,8.13,0,0,0,997.63,738Z"/><path class="cls-2" d="M516.65,698a8.15,8.15,0,1,0-8.15-8.15c0,.09,0,.18,0,.28,0,.3.05.6.08.9A8.14,8.14,0,0,0,516.65,698Z"/><path class="cls-2" d="M552,690.21a8.15,8.15,0,1,0-8.15,8.15A8.15,8.15,0,0,0,552,690.21Z"/><path class="cls-2" d="M579.18,690.57a8.16,8.16,0,1,0-8.16,8.16A8.15,8.15,0,0,0,579.18,690.57Z"/><path class="cls-2" d="M606.36,690.94a8.15,8.15,0,1,0-8.15,8.15A8.15,8.15,0,0,0,606.36,690.94Z"/><path class="cls-2" d="M633.55,691.31a8.16,8.16,0,1,0-8.16,8.15A8.16,8.16,0,0,0,633.55,691.31Z"/><path class="cls-2" d="M660.73,691.67a8.15,8.15,0,1,0-8.15,8.16A8.15,8.15,0,0,0,660.73,691.67Z"/><path class="cls-2" d="M687.92,692a8.16,8.16,0,1,0-8.15,8.15A8.15,8.15,0,0,0,687.92,692Z"/><path class="cls-2" d="M698.8,692.41a8.14,8.14,0,0,0,6.83,8l-6.27-11A8.22,8.22,0,0,0,698.8,692.41Z"/><path class="cls-2" d="M734.13,700.93A8.16,8.16,0,1,0,726,692l4.61,8.1A8.21,8.21,0,0,0,734.13,700.93Z"/><path class="cls-2" d="M753.17,693.14a8.15,8.15,0,1,0,8.15-8.15A8.15,8.15,0,0,0,753.17,693.14Z"/><path class="cls-2" d="M780.35,693.51a8.16,8.16,0,1,0,8.16-8.16A8.15,8.15,0,0,0,780.35,693.51Z"/><path class="cls-2" d="M807.54,693.87a8.15,8.15,0,1,0,8.15-8.15A8.15,8.15,0,0,0,807.54,693.87Z"/><path class="cls-2" d="M834.72,694.24a8.16,8.16,0,1,0,8.16-8.15A8.15,8.15,0,0,0,834.72,694.24Z"/><circle class="cls-2" cx="870.06" cy="694.61" r="8.15"/><path class="cls-2" d="M889.09,695a8.16,8.16,0,1,0,8.15-8.15A8.15,8.15,0,0,0,889.09,695Z"/><path class="cls-2" d="M916.28,695.34a8.15,8.15,0,1,0,8.15-8.15A8.15,8.15,0,0,0,916.28,695.34Z"/><path class="cls-2" d="M943.46,695.71a8.16,8.16,0,1,0,8.15-8.16A8.15,8.15,0,0,0,943.46,695.71Z"/><path class="cls-2" d="M970.65,696.07a8.15,8.15,0,1,0,8.15-8.15A8.15,8.15,0,0,0,970.65,696.07Z"/><path class="cls-2" d="M997.83,696.44a8.16,8.16,0,1,0,8.16-8.15A8.15,8.15,0,0,0,997.83,696.44Z"/><path class="cls-2" d="M1025,696.81a8.15,8.15,0,1,0,8.15-8.16A8.15,8.15,0,0,0,1025,696.81Z"/><path class="cls-2" d="M1052.2,697.17a8.16,8.16,0,1,0,8.15-8.15A8.15,8.15,0,0,0,1052.2,697.17Z"/><path class="cls-2" d="M1079.39,697.54a8.15,8.15,0,0,0,5.91,7.83l9.06-3.37a8.15,8.15,0,1,0-15-4.46Z"/><path class="cls-2" d="M1106.6,697.44l14-5.2a8.13,8.13,0,0,0-14,5.2Z"/><path class="cls-2" d="M525.07,647.33a8.16,8.16,0,1,0-8.15,8.15A8.15,8.15,0,0,0,525.07,647.33Z"/><path class="cls-2" d="M552.26,647.69a8.16,8.16,0,1,0-8.16,8.15A8.15,8.15,0,0,0,552.26,647.69Z"/><circle class="cls-2" cx="571.29" cy="648.06" r="8.15"/><path class="cls-2" d="M606.63,648.43a8.16,8.16,0,1,0-8.16,8.15A8.16,8.16,0,0,0,606.63,648.43Z"/><path class="cls-2" d="M633.81,648.79a8.16,8.16,0,1,0-8.15,8.16A8.15,8.15,0,0,0,633.81,648.79Z"/><path class="cls-2" d="M661,649.16a8.16,8.16,0,1,0-8.16,8.15A8.15,8.15,0,0,0,661,649.16Z"/><path class="cls-2" d="M671.88,649.53a8.15,8.15,0,0,0,8.15,8.15,7.74,7.74,0,0,0,1.19-.1l-7.51-13.2A8.07,8.07,0,0,0,671.88,649.53Z"/><path class="cls-2" d="M707.21,658.05a8.16,8.16,0,1,0-7.27-11.82L706.65,658C706.84,658,707,658.05,707.21,658.05Z"/><path class="cls-2" d="M726.25,650.26a8.15,8.15,0,1,0,8.15-8.15A8.15,8.15,0,0,0,726.25,650.26Z"/><circle class="cls-2" cx="761.58" cy="650.63" r="8.15"/><path class="cls-2" d="M780.62,651a8.15,8.15,0,1,0,8.15-8.15A8.15,8.15,0,0,0,780.62,651Z"/><path class="cls-2" d="M807.8,651.36a8.16,8.16,0,1,0,8.15-8.15A8.15,8.15,0,0,0,807.8,651.36Z"/><path class="cls-2" d="M835,651.73a8.15,8.15,0,1,0,8.15-8.16A8.15,8.15,0,0,0,835,651.73Z"/><path class="cls-2" d="M862.17,652.09a8.16,8.16,0,1,0,8.15-8.15A8.15,8.15,0,0,0,862.17,652.09Z"/><path class="cls-2" d="M889.36,652.46a8.15,8.15,0,1,0,8.15-8.15A8.15,8.15,0,0,0,889.36,652.46Z"/><path class="cls-2" d="M916.54,652.83a8.16,8.16,0,1,0,8.15-8.16A8.15,8.15,0,0,0,916.54,652.83Z"/><path class="cls-2" d="M943.73,653.19a8.15,8.15,0,1,0,8.15-8.15A8.15,8.15,0,0,0,943.73,653.19Z"/><path class="cls-2" d="M970.91,653.56a8.16,8.16,0,1,0,8.15-8.15A8.15,8.15,0,0,0,970.91,653.56Z"/><path class="cls-2" d="M998.1,653.93a8.15,8.15,0,1,0,8.15-8.16A8.15,8.15,0,0,0,998.1,653.93Z"/><path class="cls-2" d="M1025.28,654.29a8.16,8.16,0,1,0,8.15-8.15A8.15,8.15,0,0,0,1025.28,654.29Z"/><path class="cls-2" d="M1052.47,654.66a8.15,8.15,0,1,0,8.15-8.15A8.15,8.15,0,0,0,1052.47,654.66Z"/><circle class="cls-2" cx="1087.8" cy="655.03" r="8.15"/><path class="cls-2" d="M1106.84,655.39a8.15,8.15,0,1,0,8.15-8.15A8.15,8.15,0,0,0,1106.84,655.39Z"/><path class="cls-2" d="M1134,655.76a8.16,8.16,0,1,0,8.15-8.15A8.15,8.15,0,0,0,1134,655.76Z"/><path class="cls-2" d="M1161.21,656.13a8.15,8.15,0,1,0,8.15-8.16A8.15,8.15,0,0,0,1161.21,656.13Z"/><path class="cls-2" d="M1188.39,656.49a8.16,8.16,0,0,0,6.68,8l7.83-2.92a8.15,8.15,0,1,0-14.51-5.1Z"/><path class="cls-2" d="M1215.58,656.86h0l14.32-5.33a8.15,8.15,0,0,0-14.32,5.32Z"/><path class="cls-2" d="M408.44,595.19a8.15,8.15,0,0,0-6.1,13.55L415,598.55A8.16,8.16,0,0,0,408.44,595.19Z"/><path class="cls-2" d="M525.33,604.81a8.15,8.15,0,1,0-8.15,8.15A8.15,8.15,0,0,0,525.33,604.81Z"/><path class="cls-2" d="M552.52,605.18a8.16,8.16,0,1,0-8.15,8.15A8.15,8.15,0,0,0,552.52,605.18Z"/><path class="cls-2" d="M579.7,605.55a8.15,8.15,0,1,0-8.15,8.15A8.15,8.15,0,0,0,579.7,605.55Z"/><path class="cls-2" d="M606.89,605.91a8.16,8.16,0,1,0-8.15,8.15A8.15,8.15,0,0,0,606.89,605.91Z"/><path class="cls-2" d="M634.07,606.28a8.15,8.15,0,1,0-8.15,8.15A8.15,8.15,0,0,0,634.07,606.28Z"/><path class="cls-2" d="M661.26,606.65a8.16,8.16,0,1,0-8.15,8.15A8.15,8.15,0,0,0,661.26,606.65Z"/><path class="cls-2" d="M682.12,615a8.15,8.15,0,1,0-9.73-9.9l3.09-1.76Z"/><path class="cls-2" d="M699.32,607.38a8.16,8.16,0,1,0,8.16-8.15A8.15,8.15,0,0,0,699.32,607.38Z"/><path class="cls-2" d="M726.51,607.75a8.15,8.15,0,1,0,8.15-8.16A8.15,8.15,0,0,0,726.51,607.75Z"/><path class="cls-2" d="M753.69,608.11a8.16,8.16,0,1,0,8.16-8.15A8.16,8.16,0,0,0,753.69,608.11Z"/><path class="cls-2" d="M780.88,608.48a8.15,8.15,0,1,0,8.15-8.15A8.15,8.15,0,0,0,780.88,608.48Z"/><path class="cls-2" d="M808.06,608.85a8.16,8.16,0,1,0,8.16-8.16A8.15,8.15,0,0,0,808.06,608.85Z"/><path class="cls-2" d="M835.25,609.21a8.15,8.15,0,1,0,8.15-8.15A8.15,8.15,0,0,0,835.25,609.21Z"/><path class="cls-2" d="M862.43,609.58a8.16,8.16,0,1,0,8.16-8.15A8.15,8.15,0,0,0,862.43,609.58Z"/><path class="cls-2" d="M889.62,610a8.15,8.15,0,1,0,8.15-8.16A8.15,8.15,0,0,0,889.62,610Z"/><path class="cls-2" d="M916.8,610.31a8.16,8.16,0,1,0,8.16-8.15A8.16,8.16,0,0,0,916.8,610.31Z"/><path class="cls-2" d="M944,610.68a8.15,8.15,0,1,0,8.15-8.15A8.15,8.15,0,0,0,944,610.68Z"/><circle class="cls-2" cx="979.33" cy="611.05" r="8.15"/><path class="cls-2" d="M998.36,611.41a8.15,8.15,0,1,0,8.15-8.15A8.15,8.15,0,0,0,998.36,611.41Z"/><path class="cls-2" d="M1025.54,611.78a8.16,8.16,0,1,0,8.16-8.15A8.15,8.15,0,0,0,1025.54,611.78Z"/><path class="cls-2" d="M1052.73,612.15a8.15,8.15,0,1,0,8.15-8.16A8.15,8.15,0,0,0,1052.73,612.15Z"/><path class="cls-2" d="M1079.91,612.51a8.16,8.16,0,1,0,8.16-8.15A8.16,8.16,0,0,0,1079.91,612.51Z"/><path class="cls-2" d="M1107.1,612.88a8.15,8.15,0,1,0,8.15-8.15A8.15,8.15,0,0,0,1107.1,612.88Z"/><circle class="cls-2" cx="1142.44" cy="613.25" r="8.15"/><path class="cls-2" d="M1161.47,613.61a8.15,8.15,0,1,0,8.15-8.15A8.15,8.15,0,0,0,1161.47,613.61Z"/><path class="cls-2" d="M1188.65,614a8.16,8.16,0,1,0,8.16-8.15A8.15,8.15,0,0,0,1188.65,614Z"/><path class="cls-2" d="M1217,610.21a8.06,8.06,0,0,0-1.14,4.14,8.15,8.15,0,0,0,13.92,5.75Z"/><path class="cls-2" d="M416.86,560.83A8.16,8.16,0,1,0,408.7,569,8.15,8.15,0,0,0,416.86,560.83Z"/><path class="cls-2" d="M427.74,561.2a8.15,8.15,0,1,0,8.15-8.15A8.15,8.15,0,0,0,427.74,561.2Z"/><path class="cls-2" d="M463.07,553.41A8.15,8.15,0,0,0,456,565.63l12.55-10.08A8.13,8.13,0,0,0,463.07,553.41Z"/><path class="cls-2" d="M498.41,561.93a8.1,8.1,0,0,0-1.9-5.23c.28,3.09.56,6.17.83,9.26A8.08,8.08,0,0,0,498.41,561.93Z"/><path class="cls-2" d="M525.6,562.3a8.16,8.16,0,1,0-8.16,8.15A8.15,8.15,0,0,0,525.6,562.3Z"/><path class="cls-2" d="M552.78,562.66a8.15,8.15,0,1,0-8.15,8.16A8.15,8.15,0,0,0,552.78,562.66Z"/><path class="cls-2" d="M580,563a8.16,8.16,0,1,0-8.16,8.15A8.15,8.15,0,0,0,580,563Z"/><path class="cls-2" d="M607.15,563.4a8.15,8.15,0,1,0-8.15,8.15A8.15,8.15,0,0,0,607.15,563.4Z"/><path class="cls-2" d="M634.34,563.77a8.16,8.16,0,1,0-8.16,8.15A8.16,8.16,0,0,0,634.34,563.77Z"/><circle class="cls-2" cx="653.37" cy="564.13" r="8.15"/><path class="cls-2" d="M688.71,564.5a8.16,8.16,0,1,0-8.16,8.15A8.15,8.15,0,0,0,688.71,564.5Z"/><path class="cls-2" d="M715.89,564.86a8.15,8.15,0,1,0-8.15,8.16A8.15,8.15,0,0,0,715.89,564.86Z"/><path class="cls-2" d="M743.08,565.23a8.16,8.16,0,1,0-8.16,8.15A8.15,8.15,0,0,0,743.08,565.23Z"/><path class="cls-2" d="M770.26,565.6a8.15,8.15,0,1,0-8.15,8.15A8.15,8.15,0,0,0,770.26,565.6Z"/><path class="cls-2" d="M797.45,566a8.16,8.16,0,1,0-8.16,8.15A8.16,8.16,0,0,0,797.45,566Z"/><circle class="cls-2" cx="816.48" cy="566.33" r="8.15"/><path class="cls-2" d="M851.82,566.7a8.16,8.16,0,1,0-8.16,8.15A8.15,8.15,0,0,0,851.82,566.7Z"/><path class="cls-2" d="M879,567.07a8.15,8.15,0,1,0-8.15,8.15A8.15,8.15,0,0,0,879,567.07Z"/><path class="cls-2" d="M906.19,567.43a8.16,8.16,0,1,0-8.16,8.16A8.15,8.15,0,0,0,906.19,567.43Z"/><path class="cls-2" d="M933.37,567.8a8.15,8.15,0,1,0-8.15,8.15A8.15,8.15,0,0,0,933.37,567.8Z"/><path class="cls-2" d="M960.56,568.17a8.16,8.16,0,1,0-8.16,8.15A8.16,8.16,0,0,0,960.56,568.17Z"/><path class="cls-2" d="M987.74,568.53a8.15,8.15,0,1,0-8.15,8.16A8.15,8.15,0,0,0,987.74,568.53Z"/><path class="cls-2" d="M1014.93,568.9a8.16,8.16,0,1,0-8.16,8.15A8.15,8.15,0,0,0,1014.93,568.9Z"/><circle class="cls-2" cx="1033.96" cy="569.27" r="8.15"/><path class="cls-2" d="M1069.3,569.63a8.16,8.16,0,1,0-8.16,8.16A8.15,8.15,0,0,0,1069.3,569.63Z"/><path class="cls-2" d="M1096.48,570a8.15,8.15,0,1,0-8.15,8.15A8.15,8.15,0,0,0,1096.48,570Z"/><path class="cls-2" d="M1123.67,570.37a8.16,8.16,0,1,0-8.16,8.15A8.16,8.16,0,0,0,1123.67,570.37Z"/><path class="cls-2" d="M1150.85,570.73a8.15,8.15,0,1,0-8.15,8.16A8.15,8.15,0,0,0,1150.85,570.73Z"/><path class="cls-2" d="M1162.36,568a8.23,8.23,0,0,0-.63,3.15,8.15,8.15,0,0,0,13.08,6.49Z"/><path class="cls-2" d="M417.12,518.32a8.16,8.16,0,1,0-8.15,8.15A8.15,8.15,0,0,0,417.12,518.32Z"/><path class="cls-2" d="M428,518.68a8.15,8.15,0,1,0,8.15-8.15A8.15,8.15,0,0,0,428,518.68Z"/><path class="cls-2" d="M455.18,519.05a8.16,8.16,0,1,0,8.16-8.15A8.15,8.15,0,0,0,455.18,519.05Z"/><path class="cls-2" d="M482.37,519.42a8.15,8.15,0,1,0,8.15-8.16A8.15,8.15,0,0,0,482.37,519.42Z"/><path class="cls-2" d="M509.55,519.78a8.16,8.16,0,1,0,8.16-8.15A8.16,8.16,0,0,0,509.55,519.78Z"/><path class="cls-2" d="M536.74,520.15a8.15,8.15,0,1,0,8.15-8.15A8.15,8.15,0,0,0,536.74,520.15Z"/><path class="cls-2" d="M563.92,520.52a8.16,8.16,0,1,0,8.16-8.15A8.15,8.15,0,0,0,563.92,520.52Z"/><path class="cls-2" d="M591.11,520.88a8.15,8.15,0,1,0,8.15-8.15A8.15,8.15,0,0,0,591.11,520.88Z"/><path class="cls-2" d="M618.29,521.25a8.16,8.16,0,1,0,8.16-8.15A8.15,8.15,0,0,0,618.29,521.25Z"/><path class="cls-2" d="M645.48,521.62a8.15,8.15,0,1,0,8.15-8.15A8.15,8.15,0,0,0,645.48,521.62Z"/><path class="cls-2" d="M672.66,522a8.16,8.16,0,1,0,8.16-8.15A8.16,8.16,0,0,0,672.66,522Z"/><circle class="cls-2" cx="708" cy="522.35" r="8.15"/><path class="cls-2" d="M727,522.72a8.16,8.16,0,1,0,8.16-8.15A8.15,8.15,0,0,0,727,522.72Z"/><path class="cls-2" d="M754.22,523.08a8.15,8.15,0,1,0,8.15-8.15A8.15,8.15,0,0,0,754.22,523.08Z"/><path class="cls-2" d="M781.4,523.45a8.16,8.16,0,1,0,8.16-8.15A8.15,8.15,0,0,0,781.4,523.45Z"/><path class="cls-2" d="M808.59,523.82a8.15,8.15,0,1,0,8.15-8.15A8.15,8.15,0,0,0,808.59,523.82Z"/><path class="cls-2" d="M835.77,524.19a8.16,8.16,0,1,0,8.16-8.16A8.15,8.15,0,0,0,835.77,524.19Z"/><path class="cls-2" d="M863,524.55a8.15,8.15,0,1,0,8.15-8.15A8.15,8.15,0,0,0,863,524.55Z"/><path class="cls-2" d="M890.14,524.92a8.16,8.16,0,1,0,8.16-8.15A8.15,8.15,0,0,0,890.14,524.92Z"/><path class="cls-2" d="M917.33,525.28a8.15,8.15,0,1,0,8.15-8.15A8.15,8.15,0,0,0,917.33,525.28Z"/><path class="cls-2" d="M944.51,525.65a8.16,8.16,0,1,0,8.16-8.15A8.15,8.15,0,0,0,944.51,525.65Z"/><path class="cls-2" d="M971.7,526a8.15,8.15,0,1,0,8.15-8.15A8.15,8.15,0,0,0,971.7,526Z"/><path class="cls-2" d="M998.88,526.39a8.16,8.16,0,1,0,8.16-8.16A8.15,8.15,0,0,0,998.88,526.39Z"/><path class="cls-2" d="M1042.37,526.75a8.15,8.15,0,1,0-8.15,8.15A8.15,8.15,0,0,0,1042.37,526.75Z"/><path class="cls-2" d="M1069.56,527.12a8.16,8.16,0,1,0-8.15,8.15A8.15,8.15,0,0,0,1069.56,527.12Z"/><path class="cls-2" d="M1096.74,527.49a8.15,8.15,0,1,0-8.15,8.15A8.15,8.15,0,0,0,1096.74,527.49Z"/><path class="cls-2" d="M1107.89,525.81a8.15,8.15,0,0,0,11.85,9.17Z"/><path class="cls-2" d="M417.38,475.8a8.15,8.15,0,1,0-8.15,8.16A8.15,8.15,0,0,0,417.38,475.8Z"/><path class="cls-2" d="M428.26,476.17a8.16,8.16,0,1,0,8.15-8.15A8.15,8.15,0,0,0,428.26,476.17Z"/><path class="cls-2" d="M455.45,476.54a8.15,8.15,0,1,0,8.15-8.16A8.15,8.15,0,0,0,455.45,476.54Z"/><path class="cls-2" d="M482.63,476.9a8.16,8.16,0,1,0,8.15-8.15A8.15,8.15,0,0,0,482.63,476.9Z"/><path class="cls-2" d="M509.82,477.27a8.15,8.15,0,1,0,8.15-8.15A8.15,8.15,0,0,0,509.82,477.27Z"/><path class="cls-2" d="M537,477.64a8.16,8.16,0,1,0,8.15-8.16A8.15,8.15,0,0,0,537,477.64Z"/><path class="cls-2" d="M564.19,478a8.15,8.15,0,1,0,8.15-8.15A8.15,8.15,0,0,0,564.19,478Z"/><path class="cls-2" d="M591.37,478.37a8.16,8.16,0,1,0,8.15-8.15A8.15,8.15,0,0,0,591.37,478.37Z"/><path class="cls-2" d="M618.56,478.74a8.15,8.15,0,1,0,8.15-8.16A8.15,8.15,0,0,0,618.56,478.74Z"/><path class="cls-2" d="M645.74,479.1a8.16,8.16,0,1,0,8.15-8.15A8.15,8.15,0,0,0,645.74,479.1Z"/><path class="cls-2" d="M672.93,479.47a8.15,8.15,0,1,0,8.15-8.15A8.15,8.15,0,0,0,672.93,479.47Z"/><path class="cls-2" d="M700.11,479.84a8.16,8.16,0,1,0,8.15-8.15A8.15,8.15,0,0,0,700.11,479.84Z"/><path class="cls-2" d="M727.3,480.2a8.15,8.15,0,1,0,8.15-8.15A8.15,8.15,0,0,0,727.3,480.2Z"/><path class="cls-2" d="M754.48,480.57a8.16,8.16,0,1,0,8.15-8.15A8.15,8.15,0,0,0,754.48,480.57Z"/><path class="cls-2" d="M781.67,480.94a8.15,8.15,0,1,0,8.15-8.16A8.15,8.15,0,0,0,781.67,480.94Z"/><path class="cls-2" d="M808.85,481.3a8.16,8.16,0,1,0,8.15-8.15A8.15,8.15,0,0,0,808.85,481.3Z"/><path class="cls-2" d="M836,481.67a8.15,8.15,0,1,0,8.15-8.15A8.15,8.15,0,0,0,836,481.67Z"/><path class="cls-2" d="M863.22,482a8.16,8.16,0,1,0,8.15-8.15A8.15,8.15,0,0,0,863.22,482Z"/><path class="cls-2" d="M890.41,482.4a8.15,8.15,0,1,0,8.15-8.15A8.15,8.15,0,0,0,890.41,482.4Z"/><circle class="cls-2" cx="925.75" cy="482.77" r="8.15"/><path class="cls-2" d="M944.78,483.14a8.15,8.15,0,1,0,8.15-8.15A8.15,8.15,0,0,0,944.78,483.14Z"/><path class="cls-2" d="M972,483.5a8.16,8.16,0,1,0,8.16-8.15A8.16,8.16,0,0,0,972,483.5Z"/><path class="cls-2" d="M999.15,483.87a8.15,8.15,0,1,0,8.15-8.15A8.15,8.15,0,0,0,999.15,483.87Z"/><path class="cls-2" d="M1026.33,484.24a8.16,8.16,0,1,0,8.16-8.15A8.15,8.15,0,0,0,1026.33,484.24Z"/><path class="cls-2" d="M1061.67,492.76a8,8,0,0,0,2.83-.52l-10.94-8.46a7.56,7.56,0,0,0,0,.83A8.15,8.15,0,0,0,1061.67,492.76Z"/><path class="cls-2" d="M417.65,433.29a8.16,8.16,0,1,0-8.16,8.15A8.15,8.15,0,0,0,417.65,433.29Z"/><path class="cls-2" d="M428.52,433.66a8.16,8.16,0,1,0,8.16-8.16A8.16,8.16,0,0,0,428.52,433.66Z"/><path class="cls-2" d="M455.71,434a8.16,8.16,0,1,0,8.15-8.15A8.15,8.15,0,0,0,455.71,434Z"/><path class="cls-2" d="M482.9,434.39a8.15,8.15,0,1,0,8.15-8.15A8.15,8.15,0,0,0,482.9,434.39Z"/><path class="cls-2" d="M510.08,434.76a8.16,8.16,0,1,0,8.15-8.16A8.15,8.15,0,0,0,510.08,434.76Z"/><path class="cls-2" d="M537.27,435.12a8.15,8.15,0,1,0,8.15-8.15A8.15,8.15,0,0,0,537.27,435.12Z"/><path class="cls-2" d="M564.45,435.49a8.16,8.16,0,1,0,8.15-8.15A8.15,8.15,0,0,0,564.45,435.49Z"/><path class="cls-2" d="M591.64,435.86a8.15,8.15,0,1,0,8.15-8.16A8.15,8.15,0,0,0,591.64,435.86Z"/><path class="cls-2" d="M618.82,436.22a8.16,8.16,0,1,0,8.15-8.15A8.15,8.15,0,0,0,618.82,436.22Z"/><path class="cls-2" d="M646,436.59a8.15,8.15,0,1,0,8.15-8.15A8.15,8.15,0,0,0,646,436.59Z"/><path class="cls-2" d="M673.19,437a8.16,8.16,0,1,0,8.15-8.16A8.15,8.15,0,0,0,673.19,437Z"/><path class="cls-2" d="M700.37,437.32a8.16,8.16,0,1,0,8.16-8.15A8.16,8.16,0,0,0,700.37,437.32Z"/><path class="cls-2" d="M727.56,437.69a8.16,8.16,0,1,0,8.15-8.15A8.15,8.15,0,0,0,727.56,437.69Z"/><path class="cls-2" d="M754.75,438.06a8.15,8.15,0,1,0,8.15-8.16A8.15,8.15,0,0,0,754.75,438.06Z"/><path class="cls-2" d="M781.93,438.42a8.16,8.16,0,1,0,8.15-8.15A8.15,8.15,0,0,0,781.93,438.42Z"/><path class="cls-2" d="M809.11,438.79a8.16,8.16,0,1,0,8.16-8.15A8.16,8.16,0,0,0,809.11,438.79Z"/><path class="cls-2" d="M836.3,439.16a8.16,8.16,0,1,0,8.15-8.16A8.15,8.15,0,0,0,836.3,439.16Z"/><path class="cls-2" d="M863.48,439.52a8.16,8.16,0,1,0,8.16-8.15A8.16,8.16,0,0,0,863.48,439.52Z"/><path class="cls-2" d="M898.82,431.74a8,8,0,0,0-2.87.53,43.74,43.74,0,0,0,8.7,1.92A8.15,8.15,0,0,0,898.82,431.74Z"/><path class="cls-2" d="M898.82,448a8.13,8.13,0,0,0,7.07-4.1,53.3,53.3,0,0,1-15.18-3.36A8.13,8.13,0,0,0,898.82,448Z"/><path class="cls-2" d="M926,448.41a8.15,8.15,0,0,0,8.15-8.15,8.24,8.24,0,0,0-.26-2,54.07,54.07,0,0,1-15.44,5.08A8.17,8.17,0,0,0,926,448.41Z"/><path class="cls-2" d="M961.35,440.62a8.16,8.16,0,1,0-8.16,8.16A8.15,8.15,0,0,0,961.35,440.62Z"/><path class="cls-2" d="M972.23,441a8.15,8.15,0,1,0,8.15-8.15A8.15,8.15,0,0,0,972.23,441Z"/><path class="cls-2" d="M1007.56,449.51a7.61,7.61,0,0,0,1.52-.15l-9.64-7.45A8.15,8.15,0,0,0,1007.56,449.51Z"/><path class="cls-2" d="M417.91,390.78a8.16,8.16,0,1,0-8.15,8.15A8.15,8.15,0,0,0,417.91,390.78Z"/><path class="cls-2" d="M428.79,391.14a8.15,8.15,0,1,0,8.15-8.15A8.15,8.15,0,0,0,428.79,391.14Z"/><path class="cls-2" d="M456,391.51a8.16,8.16,0,1,0,8.16-8.15A8.15,8.15,0,0,0,456,391.51Z"/><path class="cls-2" d="M483.16,391.88a8.15,8.15,0,1,0,8.15-8.16A8.15,8.15,0,0,0,483.16,391.88Z"/><path class="cls-2" d="M510.34,392.24a8.16,8.16,0,1,0,8.16-8.15A8.16,8.16,0,0,0,510.34,392.24Z"/><path class="cls-2" d="M537.53,392.61a8.15,8.15,0,1,0,8.15-8.15A8.15,8.15,0,0,0,537.53,392.61Z"/><path class="cls-2" d="M564.71,393a8.16,8.16,0,1,0,8.16-8.16A8.15,8.15,0,0,0,564.71,393Z"/><path class="cls-2" d="M591.9,393.34a8.15,8.15,0,1,0,8.15-8.15A8.15,8.15,0,0,0,591.9,393.34Z"/><path class="cls-2" d="M619.08,393.71a8.16,8.16,0,1,0,8.16-8.15A8.15,8.15,0,0,0,619.08,393.71Z"/><path class="cls-2" d="M646.27,394.08a8.15,8.15,0,1,0,8.15-8.16A8.15,8.15,0,0,0,646.27,394.08Z"/><path class="cls-2" d="M681.61,386.29a8.16,8.16,0,1,0,8.15,8.15,8.07,8.07,0,0,0-.5-2.79l-4.4-4.68A8.05,8.05,0,0,0,681.61,386.29Z"/><path class="cls-2" d="M716.94,394.81a8.15,8.15,0,0,0-15.27-4l10.63,11.31A8.15,8.15,0,0,0,716.94,394.81Z"/><path class="cls-2" d="M744.13,395.18a8.16,8.16,0,1,0-8.15,8.15A8.15,8.15,0,0,0,744.13,395.18Z"/><path class="cls-2" d="M771.31,395.54a8.15,8.15,0,1,0-8.15,8.16A8.15,8.15,0,0,0,771.31,395.54Z"/><path class="cls-2" d="M798.5,395.91a8.16,8.16,0,1,0-8.15,8.15A8.15,8.15,0,0,0,798.5,395.91Z"/><path class="cls-2" d="M825.68,396.28a8.15,8.15,0,1,0-8.15,8.15A8.15,8.15,0,0,0,825.68,396.28Z"/><path class="cls-2" d="M844.72,388.49a8.16,8.16,0,1,0,7.58,11.12,66.12,66.12,0,0,1-2.23-9.11A8.1,8.1,0,0,0,844.72,388.49Z"/><path class="cls-2" d="M863.75,397a8.15,8.15,0,1,0,8.15-8.15A8.15,8.15,0,0,0,863.75,397Z"/><path class="cls-2" d="M896.59,389.62a20.12,20.12,0,0,0,9.08,12.55,8.15,8.15,0,0,0,1.45-3.43,15,15,0,0,1-5.2-9,8,8,0,0,0-2.83-.52A8.23,8.23,0,0,0,896.59,389.62Z"/><path class="cls-2" d="M918.12,397.74a8.17,8.17,0,0,0,2.19,5.56,15.12,15.12,0,0,0,7.51-7.43,11.15,11.15,0,0,0,.95-5.89,8.28,8.28,0,0,0-2.5-.39A8.15,8.15,0,0,0,918.12,397.74Z"/><path class="cls-2" d="M950.84,405.82c.14-.4.27-.8.39-1.21l-5.63-4.36A8.13,8.13,0,0,0,950.84,405.82Z"/><path class="cls-2" d="M418.17,348.26a8.15,8.15,0,1,0-8.15,8.16A8.15,8.15,0,0,0,418.17,348.26Z"/><path class="cls-2" d="M429.05,348.63a8.16,8.16,0,1,0,8.15-8.15A8.15,8.15,0,0,0,429.05,348.63Z"/><path class="cls-2" d="M456.24,349a8.15,8.15,0,1,0,8.15-8.16A8.15,8.15,0,0,0,456.24,349Z"/><path class="cls-2" d="M483.42,349.36a8.16,8.16,0,1,0,8.15-8.15A8.15,8.15,0,0,0,483.42,349.36Z"/><path class="cls-2" d="M510.61,349.73a8.15,8.15,0,1,0,8.15-8.15A8.15,8.15,0,0,0,510.61,349.73Z"/><path class="cls-2" d="M537.79,350.1a8.16,8.16,0,1,0,8.15-8.16A8.15,8.15,0,0,0,537.79,350.1Z"/><path class="cls-2" d="M565,350.46a8.15,8.15,0,1,0,8.15-8.15A8.16,8.16,0,0,0,565,350.46Z"/><path class="cls-2" d="M592.16,350.83a8.16,8.16,0,1,0,8.15-8.15A8.15,8.15,0,0,0,592.16,350.83Z"/><path class="cls-2" d="M619.35,351.2A8.15,8.15,0,1,0,627.5,343,8.15,8.15,0,0,0,619.35,351.2Z"/><path class="cls-2" d="M646.53,351.56a8.14,8.14,0,0,0,11.86,7.26l-10.71-11.41A8,8,0,0,0,646.53,351.56Z"/><path class="cls-2" d="M662.47,349.15a8.13,8.13,0,0,0-.92-2l-.55.42Z"/><path class="cls-2" d="M690,351.93a8.15,8.15,0,1,0-8.15,8.15A8.15,8.15,0,0,0,690,351.93Z"/><path class="cls-2" d="M717.21,352.3a8.16,8.16,0,1,0-8.16,8.15A8.16,8.16,0,0,0,717.21,352.3Z"/><path class="cls-2" d="M744.39,352.66a8.15,8.15,0,1,0-8.15,8.16A8.15,8.15,0,0,0,744.39,352.66Z"/><path class="cls-2" d="M771.58,353a8.16,8.16,0,1,0-8.16,8.15A8.15,8.15,0,0,0,771.58,353Z"/><path class="cls-2" d="M798.76,353.4a8.15,8.15,0,1,0-8.15,8.15A8.15,8.15,0,0,0,798.76,353.4Z"/><path class="cls-2" d="M826,353.76a8.16,8.16,0,1,0-8.16,8.16A8.15,8.15,0,0,0,826,353.76Z"/><path class="cls-2" d="M853.13,354.13a8.15,8.15,0,1,0-8.15,8.15A8.15,8.15,0,0,0,853.13,354.13Z"/><path class="cls-2" d="M872.16,362.65A8.16,8.16,0,1,0,868.87,347a73.19,73.19,0,0,0-4.77,8.6A8.15,8.15,0,0,0,872.16,362.65Z"/><path class="cls-2" d="M896.21,362.38l.19-.19-4-3.11A8.17,8.17,0,0,0,896.21,362.38Z"/><path class="cls-2" d="M418.43,305.75a8.15,8.15,0,1,0-8.15,8.15A8.15,8.15,0,0,0,418.43,305.75Z"/><path class="cls-2" d="M429.31,306.12a8.16,8.16,0,1,0,8.16-8.16A8.15,8.15,0,0,0,429.31,306.12Z"/><path class="cls-2" d="M456.5,306.48a8.15,8.15,0,1,0,8.15-8.15A8.15,8.15,0,0,0,456.5,306.48Z"/><path class="cls-2" d="M483.68,306.85a8.16,8.16,0,1,0,8.16-8.15A8.15,8.15,0,0,0,483.68,306.85Z"/><path class="cls-2" d="M510.87,307.22a8.15,8.15,0,1,0,8.15-8.16A8.15,8.15,0,0,0,510.87,307.22Z"/><path class="cls-2" d="M538.05,307.58a8.16,8.16,0,1,0,8.16-8.15A8.16,8.16,0,0,0,538.05,307.58Z"/><path class="cls-2" d="M565.24,308a8.15,8.15,0,1,0,8.15-8.15A8.15,8.15,0,0,0,565.24,308Z"/><path class="cls-2" d="M592.42,308.32a8.16,8.16,0,1,0,8.16-8.16A8.15,8.15,0,0,0,592.42,308.32Z"/><path class="cls-2" d="M619.61,308.68a8.15,8.15,0,1,0,8.15-8.15A8.16,8.16,0,0,0,619.61,308.68Z"/><path class="cls-2" d="M646.79,309.05A8.16,8.16,0,1,0,655,300.9,8.15,8.15,0,0,0,646.79,309.05Z"/><path class="cls-2" d="M690.28,309.42a8.16,8.16,0,1,0-4.83,7.44l3-2.29A8.17,8.17,0,0,0,690.28,309.42Z"/><path class="cls-2" d="M703.31,315.29a8.15,8.15,0,1,0,6-13.66,8,8,0,0,0-2.09.28l6.22,5.64Z"/><path class="cls-2" d="M744.65,310.15a8.15,8.15,0,1,0-8.15,8.15A8.15,8.15,0,0,0,744.65,310.15Z"/><circle class="cls-2" cx="763.69" cy="310.52" r="8.15"/><path class="cls-2" d="M799,310.88a8.15,8.15,0,1,0-8.15,8.16A8.15,8.15,0,0,0,799,310.88Z"/><path class="cls-2" d="M826.21,311.25a8.13,8.13,0,0,0-1.26-4.34l-4.45-3.44a8.15,8.15,0,1,0,5.71,7.78Z"/><path class="cls-2" d="M418.7,263.24a8.16,8.16,0,1,0-8.16,8.15A8.16,8.16,0,0,0,418.7,263.24Z"/><path class="cls-2" d="M429.58,263.6a8.15,8.15,0,1,0,8.15-8.15A8.15,8.15,0,0,0,429.58,263.6Z"/><path class="cls-2" d="M456.76,264a8.16,8.16,0,1,0,8.15-8.15A8.15,8.15,0,0,0,456.76,264Z"/><path class="cls-2" d="M484,264.33a8.15,8.15,0,1,0,8.15-8.15A8.15,8.15,0,0,0,484,264.33Z"/><path class="cls-2" d="M511.13,264.7a8.16,8.16,0,1,0,8.15-8.15A8.15,8.15,0,0,0,511.13,264.7Z"/><path class="cls-2" d="M538.32,265.07a8.15,8.15,0,1,0,8.15-8.15A8.15,8.15,0,0,0,538.32,265.07Z"/><path class="cls-2" d="M565.5,265.44a8.16,8.16,0,1,0,8.15-8.16A8.15,8.15,0,0,0,565.5,265.44Z"/><path class="cls-2" d="M592.69,265.8a8.15,8.15,0,1,0,8.15-8.15A8.15,8.15,0,0,0,592.69,265.8Z"/><path class="cls-2" d="M619.87,266.17A8.16,8.16,0,1,0,628,258,8.15,8.15,0,0,0,619.87,266.17Z"/><path class="cls-2" d="M647.06,266.54a8.15,8.15,0,1,0,8.15-8.16A8.15,8.15,0,0,0,647.06,266.54Z"/><path class="cls-2" d="M682.39,275.06a8.14,8.14,0,0,0,7.35-11.68l-11.21,10.7A8.13,8.13,0,0,0,682.39,275.06Z"/><path class="cls-2" d="M674.58,264.59l5.87-5.6A8.14,8.14,0,0,0,674.58,264.59Z"/><path class="cls-2" d="M717.73,267.27a8.15,8.15,0,1,0-8.15,8.15A8.15,8.15,0,0,0,717.73,267.27Z"/><path class="cls-2" d="M744.92,267.64a8.16,8.16,0,1,0-8.16,8.15A8.16,8.16,0,0,0,744.92,267.64Z"/><path class="cls-2" d="M772.1,268a8.15,8.15,0,0,0-.31-2.22l-7.66-5.92H764A8.16,8.16,0,1,0,772.1,268Z"/><path class="cls-2" d="M419,220.72a8.15,8.15,0,1,0-8.15,8.15A8.15,8.15,0,0,0,419,220.72Z"/><path class="cls-2" d="M429.84,221.09a8.16,8.16,0,1,0,8.15-8.15A8.15,8.15,0,0,0,429.84,221.09Z"/><path class="cls-2" d="M457,221.45a8.16,8.16,0,1,0,8.16-8.15A8.16,8.16,0,0,0,457,221.45Z"/><path class="cls-2" d="M484.21,221.82a8.16,8.16,0,1,0,8.15-8.15A8.15,8.15,0,0,0,484.21,221.82Z"/><path class="cls-2" d="M511.39,222.19a8.16,8.16,0,1,0,8.16-8.15A8.15,8.15,0,0,0,511.39,222.19Z"/><path class="cls-2" d="M538.58,222.55a8.16,8.16,0,1,0,8.15-8.15A8.15,8.15,0,0,0,538.58,222.55Z"/><path class="cls-2" d="M565.76,222.92a8.16,8.16,0,1,0,8.16-8.15A8.16,8.16,0,0,0,565.76,222.92Z"/><path class="cls-2" d="M593,223.29a8.16,8.16,0,1,0,8.15-8.15A8.15,8.15,0,0,0,593,223.29Z"/><path class="cls-2" d="M620.13,223.66a8.16,8.16,0,1,0,8.16-8.16A8.16,8.16,0,0,0,620.13,223.66Z"/><path class="cls-2" d="M647.32,224a8.16,8.16,0,1,0,8.15-8.15A8.15,8.15,0,0,0,647.32,224Z"/><path class="cls-2" d="M674.51,224.39a8.15,8.15,0,1,0,8.15-8.15A8.15,8.15,0,0,0,674.51,224.39Z"/><path class="cls-2" d="M704.48,218.63A8.13,8.13,0,0,0,708,232.69l6.19-5.91Z"/><path class="cls-2" d="M419.22,178.21a8.15,8.15,0,1,0-8.15,8.15A8.15,8.15,0,0,0,419.22,178.21Z"/><path class="cls-2" d="M446.41,178.57a8.16,8.16,0,1,0-8.15,8.16A8.15,8.15,0,0,0,446.41,178.57Z"/><path class="cls-2" d="M473.59,178.94a8.15,8.15,0,1,0-8.15,8.15A8.15,8.15,0,0,0,473.59,178.94Z"/><path class="cls-2" d="M500.78,179.31a8.16,8.16,0,1,0-8.15,8.15A8.15,8.15,0,0,0,500.78,179.31Z"/><path class="cls-2" d="M528,179.67a8.15,8.15,0,1,0-8.15,8.16A8.15,8.15,0,0,0,528,179.67Z"/><circle class="cls-2" cx="547" cy="180.04" r="8.15"/><path class="cls-2" d="M582.33,180.41a8.15,8.15,0,1,0-8.15,8.15A8.15,8.15,0,0,0,582.33,180.41Z"/><path class="cls-2" d="M609.52,180.77a8.16,8.16,0,1,0-8.15,8.16A8.15,8.15,0,0,0,609.52,180.77Z"/><path class="cls-2" d="M636.7,181.14a8.15,8.15,0,1,0-8.15,8.15A8.15,8.15,0,0,0,636.7,181.14Z"/><path class="cls-2" d="M663.85,182.27,653,173.85a8.15,8.15,0,1,0,10.89,8.42Z"/><path class="cls-2" d="M419.49,135.69a8.16,8.16,0,1,0-8.16,8.16A8.15,8.15,0,0,0,419.49,135.69Z"/><circle class="cls-2" cx="438.52" cy="136.06" r="8.15"/><path class="cls-2" d="M473.86,136.43a8.16,8.16,0,1,0-8.16,8.15A8.16,8.16,0,0,0,473.86,136.43Z"/><path class="cls-2" d="M501,136.79a8.15,8.15,0,1,0-8.15,8.16A8.15,8.15,0,0,0,501,136.79Z"/><path class="cls-2" d="M528.23,137.16a8.16,8.16,0,1,0-8.16,8.15A8.15,8.15,0,0,0,528.23,137.16Z"/><path class="cls-2" d="M555.41,137.53a8.15,8.15,0,1,0-8.15,8.15A8.15,8.15,0,0,0,555.41,137.53Z"/><path class="cls-2" d="M582.6,137.89a8.16,8.16,0,1,0-8.16,8.16A8.15,8.15,0,0,0,582.6,137.89Z"/><path class="cls-2" d="M609.53,140.25l-11.81-9.14a8.15,8.15,0,1,0,11.81,9.14Z"/><path class="cls-2" d="M419.75,93.18a8.16,8.16,0,1,0-8.15,8.15A8.15,8.15,0,0,0,419.75,93.18Z"/><path class="cls-2" d="M446.93,93.55a8.15,8.15,0,1,0-8.15,8.15A8.15,8.15,0,0,0,446.93,93.55Z"/><path class="cls-2" d="M474.12,93.91a8.16,8.16,0,1,0-8.15,8.16A8.15,8.15,0,0,0,474.12,93.91Z"/><circle class="cls-2" cx="493.15" cy="94.28" r="8.15"/><path class="cls-2" d="M528.49,94.65a8.16,8.16,0,1,0-8.15,8.15A8.15,8.15,0,0,0,528.49,94.65Z"/><path class="cls-2" d="M555.06,98.11,542.64,88.5a8.15,8.15,0,1,0,12.42,9.61Z"/><path class="cls-2" d="M420,50.67a8.15,8.15,0,1,0-8.15,8.15A8.15,8.15,0,0,0,420,50.67Z"/><path class="cls-2" d="M447.2,51A8.16,8.16,0,1,0,439,59.19,8.15,8.15,0,0,0,447.2,51Z"/><path class="cls-2" d="M474.38,51.4a8.15,8.15,0,1,0-8.15,8.15A8.15,8.15,0,0,0,474.38,51.4Z"/><path class="cls-2" d="M500.46,55.86,487.68,46a8.15,8.15,0,1,0,12.78,9.88Z"/><path class="cls-2" d="M404,8.15A8.16,8.16,0,1,0,412.12,0,8.15,8.15,0,0,0,404,8.15Z"/><path class="cls-2" d="M445.73,13.52l-12.88-10a8.14,8.14,0,0,0,12.88,10Z"/><path class="cls-8" d="M400.18,853.76V734.9l-99.36-44.61,99.36-79.81V0H333.83L346.6,18.94l-47.31-.63L305.89,0H0V878H400.18V853.76ZM7.09,235q8.17-22.67,16.34-45.32l31,45.95ZM254.53,381.33a24.93,24.93,0,1,1-24.92,24.93A24.93,24.93,0,0,1,254.53,381.33ZM9.46,625.61q8.16-22.67,16.34-45.33l31,46Zm43.08,142.2a70,70,0,1,1,70,70A70.1,70.1,0,0,1,52.54,767.81Zm158.14,77.33a24.92,24.92,0,1,1,24.92,24.92A24.91,24.91,0,0,1,210.68,845.14Z"/><path class="cls-8" d="M71.72,767.81A50.84,50.84,0,1,0,122.56,717,50.89,50.89,0,0,0,71.72,767.81Z"/><path class="cls-9" d="M282.77,342.31a70,70,0,1,0-70,70A70.1,70.1,0,0,0,282.77,342.31Zm-70-50.84a50.84,50.84,0,1,1-50.83,50.84A50.9,50.9,0,0,1,212.75,291.47Z"/><polygon class="cls-10" points="678.97 614.5 672.32 602.84 669.23 604.6 653.31 613.67 670.55 643.93 678.07 657.13 696.21 688.99 702.48 700 722.59 735.3 724.74 739.09 738.13 731.47 743.76 728.27 727.48 699.68 722.86 691.58 703.49 657.57 696.78 645.78 678.97 614.5"/><path class="cls-11" d="M587.9,38.27Q596.45,19.14,605,0H581L552.74,5.33Z"/><path class="cls-2" d="M9.46,625.61l47.3.63-31-46Q17.63,602.94,9.46,625.61Z"/><path class="cls-2" d="M299.29,18.31l47.31.63L333.83,0H305.89Z"/><path class="cls-10" d="M23.43,189.68Q15.26,212.33,7.09,235l47.31.63Z"/><path class="cls-12" d="M254.53,431.18a24.93,24.93,0,1,0-24.92-24.92A24.93,24.93,0,0,0,254.53,431.18Z"/><circle class="cls-10" cx="235.6" cy="845.14" r="24.92"/><path class="cls-5" d="M876.92,18.94A24.93,24.93,0,1,0,918,0H885.66A24.88,24.88,0,0,0,876.92,18.94Z"/><path class="cls-11" d="M274.38,165.16,365,225.65l.48.32,7.65,5.11,65.92,44,13.55,9.05L471.69,297c.11-1.5.23-3,.35-4.5q.63-8.13,1.25-16.25,1.05-13.51,2.09-27,.54-7,1.09-14.08,1.33-17.35,2.68-34.7c0-.3.05-.6.07-.9l9.6-124.3.72-9.26q.85-11,1.7-22L462.17,60.15,448.12,68,402.24,93.67q-7.11,4-14.2,7.94L385.62,103Z"/><polygon class="cls-13" points="1215.33 213.75 700.9 210.26 577.7 114.94 1215.33 114.94 1215.33 213.75"/><path class="cls-14" d="M961.35,385.59a44.81,44.81,0,0,0-1.74-6A43.54,43.54,0,0,0,936.9,355a35.75,35.75,0,0,0-15-3.31,36.15,36.15,0,0,0-25.09,10.15c-.13.12-.26.26-.38.39l-.19.19a35.85,35.85,0,0,0-7,10.14A29.77,29.77,0,0,0,903.69,412a24.77,24.77,0,0,0,32.83-12.08,20.62,20.62,0,0,0,1.13-14.31c-.15-.52-.3-1-.49-1.56a20.61,20.61,0,0,0-10.77-11.68,17.48,17.48,0,0,0-13.43-.54,18.08,18.08,0,0,0-2.05.93,17.48,17.48,0,0,0-7.83,8.19,15.13,15.13,0,0,0,7.33,19.92l4-8.71a5.43,5.43,0,0,1-2.65-7.19,8,8,0,0,1,9.28-4.35,8.74,8.74,0,0,1,1.3.46,11.08,11.08,0,0,1,4.79,4.25,11.27,11.27,0,0,1,1.61,4.67,11.15,11.15,0,0,1-.95,5.89,15.2,15.2,0,0,1-20.11,7.4,19.89,19.89,0,0,1-2-1.1,20.21,20.21,0,0,1-7.79-25.63,26.35,26.35,0,0,1,6.58-8.79,26,26,0,0,1,6.61-4.22c.54-.24,1.08-.47,1.64-.67a26.2,26.2,0,0,1,19.85.67l.32.14a33.94,33.94,0,0,1,17.73,19.22c.33.89.61,1.79.86,2.7a33.89,33.89,0,0,1-.07,18.47c-.06.18-.11.37-.17.55-.12.41-.25.81-.39,1.21a32.24,32.24,0,0,1-1.29,3.19,44,44,0,0,1-58.26,21.43A56.06,56.06,0,0,1,863.92,356c.05-.13.12-.25.18-.38a73.19,73.19,0,0,1,4.77-8.6c1-1.52,2-3,3.12-4.42a70.66,70.66,0,0,1,27-21.5c1.66-.75,3.34-1.46,5.07-2.1a70.85,70.85,0,0,1,54.31,2.1l.2.09,0-.09,4-8.61A80.32,80.32,0,0,0,900.7,310a81.43,81.43,0,0,0-20.52,11.1,80.07,80.07,0,0,0-15.78,15.64A81.43,81.43,0,0,0,855.21,352a65.12,65.12,0,0,0-5.14,38.5,66.12,66.12,0,0,0,2.23,9.11c.28.87.57,1.74.89,2.6a65.24,65.24,0,0,0,34.08,36.94c1.13.52,2.28,1,3.44,1.43a53.13,53.13,0,0,0,27.75,2.76,54.07,54.07,0,0,0,15.44-5.08A53.19,53.19,0,0,0,958.26,413c.42-.91.8-1.84,1.16-2.77a44.37,44.37,0,0,0,1.4-4.32A43.22,43.22,0,0,0,961.35,385.59Z"/><path class="cls-10" d="M1078.49,169.66a33.93,33.93,0,1,0-.42-5.31A34.48,34.48,0,0,0,1078.49,169.66Z"/><path class="cls-10" d="M1018.73,810.41a34,34,0,0,0,68,0c0-.25,0-.5,0-.75a34,34,0,0,0-68,0C1018.75,809.91,1018.73,810.16,1018.73,810.41Z"/><polygon class="cls-14" points="711.23 211.77 682.55 187.7 737.3 161.36 689.81 119.16 736.33 95.66 732.01 87.1 672.9 116.96 720.16 158.96 667.4 184.34 665 185.5 704.48 218.63 714.2 226.78 708.01 232.69 680.45 258.99 674.58 264.59 663.45 275.22 698.47 306.92 688.45 314.57 685.45 316.86 646.74 346.41 647.68 347.41 658.39 358.82 684.86 386.97 689.26 391.65 716.33 420.45 723.32 413.88 712.3 402.16 701.67 390.85 662.47 349.15 661 347.59 661.55 347.17 703.31 315.29 713.45 307.55 707.23 301.91 677.53 275.03 678.53 274.08 689.74 263.38 725.48 229.28 728.58 226.32 711.23 211.77"/><path class="cls-15" d="M1079.39,164.35a61.11,61.11,0,0,0,60.28-71.56,34.15,34.15,0,0,1-19.79-.74,42,42,0,1,1-22.48-26.81,34.61,34.61,0,0,1-.42-5.32,33.82,33.82,0,0,1,3.16-14.3,61.18,61.18,0,1,0-20.75,118.73Z"/></g></g></g></svg>